<?xml version="1.0" encoding="UTF-8"?>
<svg xmlns="http://www.w3.org/2000/svg" xmlns:xlink="http://www.w3.org/1999/xlink" viewBox="6162.108333 0 1232.421667 1939.450000" width="1232.421667" height="1939.450000">

<path fill-rule="nonzero" fill="rgb(0%, 0%, 0%)" fill-opacity="1" d="M 683.054688 1338.730469 C 667.210938 1335.875 650.886719 1339.429688 637.664062 1348.609375 C 610.125 1367.722656 603.296875 1405.539062 622.410156 1433.078125 L 753.738281 1622.261719 L 759.769531 1799.613281 C 760.316406 1815.703125 767.234375 1830.917969 779 1841.90625 C 790.765625 1852.894531 806.414062 1858.761719 822.503906 1858.214844 C 856.003906 1857.074219 882.238281 1828.992188 881.101562 1795.492188 L 874.46875 1600.277344 C 874.070312 1588.613281 870.316406 1577.3125 863.660156 1567.730469 L 722.132812 1363.851562 C 712.953125 1350.625 698.894531 1341.589844 683.054688 1338.730469 "/>
<path fill-rule="nonzero" fill="rgb(0%, 0%, 0%)" fill-opacity="1" d="M 789.449219 740.859375 C 757.3125 740.859375 726.496094 753.628906 703.773438 776.351562 C 681.050781 799.070312 668.285156 829.890625 668.285156 862.03125 C 668.296875 912.21875 699.257812 957.210938 746.136719 975.152344 L 785.375 967.464844 L 899.140625 843.441406 C 901.746094 840.589844 904.640625 838.078125 907.757812 835.910156 C 895.503906 780.398438 846.300781 740.871094 789.449219 740.859375 Z M 910.558594 864.210938 L 802.054688 982.511719 C 862.90625 976.132812 909.449219 925.378906 910.558594 864.210938 "/>
<path fill-rule="nonzero" fill="rgb(0%, 0%, 0%)" fill-opacity="1" d="M 709.734375 1016.613281 L 663.714844 1025.628906 C 653.585938 1027.613281 647.527344 1036.628906 649.515625 1046.757812 C 649.515625 1046.761719 649.515625 1046.761719 649.515625 1046.761719 C 649.515625 1046.761719 649.515625 1046.765625 649.515625 1046.765625 C 649.515625 1046.765625 649.515625 1046.765625 649.515625 1046.769531 C 649.515625 1046.769531 649.515625 1046.769531 649.515625 1046.773438 C 649.515625 1046.777344 649.515625 1046.777344 649.515625 1046.777344 C 649.515625 1046.777344 649.515625 1046.78125 649.515625 1046.78125 C 649.515625 1046.785156 649.515625 1046.785156 649.515625 1046.792969 C 651.503906 1056.914062 660.519531 1062.964844 670.644531 1060.980469 C 671.359375 1060.839844 672.085938 1060.769531 672.8125 1060.769531 L 671.734375 1060.769531 L 728.058594 1049.722656 L 721.710938 1033.207031 C 719.207031 1026.742188 715.082031 1021.027344 709.734375 1016.613281 Z M 744.425781 1092.289062 L 679.308594 1105.058594 C 673.828125 1106.132812 668.363281 1106.445312 663.019531 1106.078125 L 707.792969 1222.558594 C 710.445312 1229.441406 714.933594 1235.464844 720.765625 1239.984375 C 720.800781 1236.796875 720.859375 1233.734375 720.941406 1230.890625 C 721.101562 1225.296875 721.328125 1220.527344 721.507812 1217.171875 C 721.601562 1215.492188 721.679688 1214.160156 721.730469 1213.292969 C 721.757812 1212.878906 721.78125 1212.589844 721.789062 1212.4375 C 721.789062 1212.453125 721.789062 1212.570312 721.789062 1212.582031 C 721.792969 1211.625 721.921875 1210.675781 722.164062 1209.75 C 722.171875 1209.730469 722.183594 1209.710938 722.1875 1209.691406 C 731.480469 1175.34375 747.535156 1133.210938 753.898438 1116.941406 Z M 766.011719 1148.453125 C 758.882812 1167.828125 750.019531 1193.214844 744.160156 1214.667969 C 744.109375 1215.546875 744.027344 1216.792969 743.941406 1218.390625 C 743.765625 1221.613281 743.546875 1226.1875 743.394531 1231.53125 C 743.214844 1237.9375 743.140625 1245.457031 743.339844 1252.949219 L 854.871094 1313.980469 C 874.476562 1324.710938 899.066406 1317.511719 909.792969 1297.90625 C 920.519531 1278.304688 913.324219 1253.714844 893.71875 1242.984375 L 778.011719 1179.664062 Z M 721.789062 1212.714844 C 721.78125 1212.789062 721.773438 1212.753906 721.800781 1213.304688 C 721.8125 1213.503906 721.898438 1214.347656 721.898438 1214.347656 C 721.898438 1214.347656 723.878906 1219.226562 723.878906 1219.222656 C 723.878906 1219.222656 726.3125 1219.128906 727.378906 1219.089844 C 724.753906 1217.777344 722.746094 1215.488281 721.789062 1212.714844 Z M 743.828125 1215.691406 C 742.59375 1217.023438 741.054688 1218.039062 739.339844 1218.644531 C 740.28125 1218.613281 742.609375 1218.523438 742.609375 1218.523438 C 742.605469 1218.523438 743.828125 1215.691406 743.828125 1215.691406 "/>
<path fill-rule="nonzero" fill="rgb(0%, 0%, 0%)" fill-opacity="1" d="M 667.785156 968.339844 C 663.691406 968.410156 659.605469 968.71875 655.546875 969.265625 C 618.199219 974.28125 586.363281 998.84375 572.03125 1033.695312 C 572.03125 1033.695312 546.195312 1095.277344 529.339844 1157.625 C 515.09375 1210.328125 519.589844 1252.347656 522.886719 1288.042969 C 526.1875 1323.738281 531.695312 1352.242188 531.695312 1352.242188 C 536.980469 1379.714844 552.964844 1403.964844 576.128906 1419.652344 C 599.292969 1435.34375 627.738281 1441.1875 655.214844 1435.902344 C 682.6875 1430.617188 706.9375 1414.632812 722.625 1391.46875 C 738.316406 1368.304688 744.160156 1339.855469 738.875 1312.382812 C 738.875 1312.382812 735.257812 1293.449219 732.964844 1268.636719 C 730.671875 1243.832031 733.121094 1212.292969 733.011719 1212.691406 L 733.011719 1212.679688 C 744.425781 1170.460938 767.15625 1113.933594 767.15625 1113.933594 C 772.257812 1101.527344 774.945312 1088.257812 775.074219 1074.84375 L 677.144531 1094.039062 C 649.253906 1099.511719 621.925781 1081.144531 616.453125 1053.257812 C 610.980469 1025.367188 629.355469 998.035156 657.246094 992.570312 L 718.796875 980.511719 C 715.839844 978.949219 712.808594 977.527344 709.714844 976.253906 C 696.421875 970.785156 682.152344 968.09375 667.78125 968.339844 Z M 743.511719 998.554688 L 661.558594 1014.609375 C 645.582031 1017.742188 635.359375 1032.949219 638.496094 1048.925781 C 638.496094 1048.925781 638.496094 1048.925781 638.496094 1048.929688 C 638.496094 1048.933594 638.496094 1048.933594 638.496094 1048.933594 C 638.496094 1048.933594 638.496094 1048.9375 638.496094 1048.9375 C 641.625 1064.914062 656.835938 1075.132812 672.8125 1071.996094 C 672.816406 1071.996094 672.820312 1071.996094 672.824219 1071.996094 L 772.882812 1052.386719 C 768.636719 1031.929688 758.417969 1013.191406 743.511719 998.554688 "/>
<path fill-rule="nonzero" fill="rgb(0%, 0%, 0%)" fill-opacity="1" d="M 935.5 837.949219 C 924.777344 838.410156 914.675781 843.109375 907.417969 851.019531 L 791.164062 977.773438 L 659.402344 1003.589844 C 648.867188 1005.65625 639.589844 1011.820312 633.601562 1020.726562 C 627.613281 1029.636719 625.410156 1040.558594 627.476562 1051.09375 C 629.539062 1061.625 635.703125 1070.90625 644.613281 1076.894531 C 653.519531 1082.882812 664.445312 1085.085938 674.976562 1083.019531 L 819.78125 1054.636719 C 828.257812 1052.972656 835.980469 1048.640625 841.820312 1042.273438 L 967.0625 905.71875 C 974.316406 897.808594 978.132812 887.351562 977.671875 876.621094 C 977.207031 865.898438 972.503906 855.800781 964.59375 848.550781 C 956.683594 841.300781 946.21875 837.480469 935.5 837.949219 "/>
<path fill-rule="nonzero" fill="rgb(0%, 0%, 0%)" fill-opacity="1" d="M 614.214844 1330.398438 C 586.433594 1330.691406 562.398438 1349.804688 555.855469 1376.800781 L 554.746094 1381.390625 C 566.125 1400.117188 583.671875 1414.175781 604.078125 1421.324219 C 594.230469 1391.796875 604.457031 1357.976562 631.253906 1339.378906 C 633.511719 1337.808594 635.851562 1336.382812 638.25 1335.09375 C 635.292969 1333.855469 632.246094 1332.855469 629.128906 1332.101562 C 624.246094 1330.917969 619.238281 1330.347656 614.214844 1330.398438 Z M 660.023438 1350.558594 C 654.371094 1352.003906 648.960938 1354.445312 644.070312 1357.839844 C 621.570312 1373.460938 616.023438 1403.992188 631.550781 1426.527344 C 638.617188 1426.792969 645.835938 1426.269531 653.089844 1424.871094 C 659.101562 1423.714844 664.863281 1422.011719 670.34375 1419.828125 L 673.84375 1405.375 C 678.546875 1385.941406 673.378906 1365.4375 660.023438 1350.558594 Z M 547.90625 1409.636719 L 511.933594 1558.199219 L 331.582031 1575.4375 C 315.554688 1576.96875 300.792969 1584.800781 290.542969 1597.21875 C 280.292969 1609.632812 275.394531 1625.609375 276.925781 1641.636719 C 278.457031 1657.664062 286.289062 1672.429688 298.710938 1682.679688 C 311.125 1692.929688 327.105469 1697.828125 343.136719 1696.292969 L 566.53125 1674.929688 C 592.292969 1672.460938 613.65625 1653.933594 619.742188 1628.78125 L 652.03125 1495.453125 L 619.011719 1447.894531 C 591.382812 1443.96875 566.171875 1430.195312 547.90625 1409.636719 Z M 664.148438 1445.402344 C 661.90625 1445.972656 659.636719 1446.488281 657.335938 1446.933594 C 653.804688 1447.613281 650.277344 1448.121094 646.769531 1448.46875 L 659.105469 1466.238281 L 664.148438 1445.402344 "/>
<path fill-rule="nonzero" fill="rgb(0%, 0%, 0%)" fill-opacity="1" d="M 1773.949219 1275.433594 C 1743.808594 1273.832031 1717.070312 1294.625 1711.191406 1324.234375 C 1705.390625 1353.589844 1721.851562 1382.796875 1749.960938 1393.035156 C 1780.800781 1372.691406 1797.941406 1335.199219 1790.511719 1296.5625 C 1790.511719 1296.554688 1790.511719 1296.546875 1790.5 1296.539062 C 1790.5 1296.539062 1789.089844 1289.109375 1787.460938 1277.484375 L 1782.539062 1276.507812 C 1779.710938 1275.945312 1776.839844 1275.585938 1773.949219 1275.433594 Z M 1810.871094 1282.128906 C 1811.828125 1288.25 1812.570312 1292.304688 1812.570312 1292.320312 L 1812.570312 1292.339844 C 1820.378906 1332.976562 1805.949219 1372.832031 1777.859375 1399.34375 L 1960.308594 1435.53125 L 2112.691406 1564.851562 C 2124.960938 1575.269531 2140.871094 1580.382812 2156.921875 1579.070312 C 2172.960938 1577.757812 2187.828125 1570.125 2198.25 1557.851562 C 2208.660156 1545.574219 2213.78125 1529.664062 2212.460938 1513.617188 C 2211.148438 1497.574219 2203.511719 1482.707031 2191.238281 1472.289062 L 2026.851562 1332.777344 C 2018.96875 1326.09375 2009.511719 1321.53125 1999.378906 1319.523438 L 1810.871094 1282.128906 "/>
<path fill-rule="nonzero" fill="rgb(0%, 0%, 0%)" fill-opacity="1" d="M 1694.5 973.371094 C 1692.941406 973.410156 1691.390625 973.542969 1689.851562 973.761719 L 1684.519531 974.597656 C 1667.050781 984.855469 1653.050781 1000.652344 1645.089844 1020.023438 C 1645.078125 1020.046875 1645.058594 1020.074219 1645.050781 1020.097656 C 1645.050781 1020.097656 1637.308594 1038.617188 1627.578125 1065.433594 L 1676 1057.847656 C 1672.28125 1051.726562 1669.558594 1044.875 1668.109375 1037.476562 C 1663.140625 1012.15625 1674.371094 987.171875 1694.5 973.371094 Z M 1642.601562 981.164062 L 1520.179688 1000.34375 C 1510.710938 1001.828125 1502.078125 1006.621094 1495.808594 1013.875 L 1399.910156 1124.953125 C 1392.898438 1133.074219 1389.398438 1143.652344 1390.179688 1154.355469 C 1390.960938 1165.058594 1395.96875 1175.015625 1404.089844 1182.027344 C 1412.210938 1189.042969 1422.789062 1192.542969 1433.5 1191.757812 C 1444.199219 1190.972656 1454.148438 1185.964844 1461.171875 1177.839844 L 1547.371094 1078.007812 L 1602.300781 1069.398438 C 1614.101562 1035.78125 1624.28125 1011.554688 1624.308594 1011.480469 C 1628.890625 1000.339844 1635.101562 990.160156 1642.601562 981.164062 Z M 1735.75 1005.859375 L 1726.398438 1007.6875 C 1716.269531 1009.675781 1710.210938 1018.699219 1712.199219 1028.824219 C 1712.199219 1028.824219 1712.199219 1028.824219 1712.199219 1028.828125 C 1713.570312 1035.808594 1718.28125 1040.855469 1724.390625 1042.667969 C 1733.761719 1033.519531 1738.121094 1020.402344 1736.101562 1007.464844 C 1735.988281 1006.925781 1735.871094 1006.390625 1735.75 1005.859375 "/>
<path fill-rule="nonzero" fill="rgb(0%, 0%, 0%)" fill-opacity="1" d="M 1852.121094 722.921875 C 1819.980469 722.921875 1789.160156 735.691406 1766.441406 758.410156 C 1743.71875 781.128906 1730.949219 811.949219 1730.949219 844.078125 C 1730.96875 894.28125 1761.929688 939.269531 1808.808594 957.210938 L 1848.058594 949.519531 L 1961.808594 825.488281 C 1964.410156 822.648438 1967.308594 820.148438 1970.421875 817.980469 C 1958.179688 762.460938 1908.96875 722.929688 1852.121094 722.921875 Z M 1973.199219 846.300781 L 1864.789062 964.5 C 1925.570312 958.074219 1972.039062 907.398438 1973.199219 846.300781 "/>
<path fill-rule="nonzero" fill="rgb(0%, 0%, 0%)" fill-opacity="1" d="M 1736.589844 950.472656 C 1730.460938 950.21875 1724.308594 950.503906 1718.230469 951.320312 L 1718.21875 951.320312 C 1680.871094 956.335938 1649.03125 980.894531 1634.699219 1015.753906 C 1634.699219 1015.753906 1608.859375 1077.335938 1592.011719 1139.683594 C 1577.761719 1192.382812 1582.25 1234.40625 1585.550781 1270.101562 C 1588.851562 1305.792969 1594.359375 1334.296875 1594.359375 1334.296875 C 1599.648438 1361.769531 1615.628906 1386.019531 1638.789062 1401.710938 C 1661.960938 1417.398438 1690.410156 1423.242188 1717.878906 1417.957031 C 1745.351562 1412.671875 1769.601562 1396.691406 1785.289062 1373.523438 C 1800.980469 1350.359375 1806.828125 1321.914062 1801.539062 1294.4375 C 1801.539062 1294.4375 1797.929688 1275.503906 1795.640625 1250.691406 C 1793.351562 1225.882812 1795.789062 1194.332031 1795.679688 1194.75 C 1807.089844 1152.527344 1829.820312 1095.992188 1829.820312 1095.992188 C 1834.921875 1083.585938 1837.609375 1070.316406 1837.738281 1056.902344 L 1739.800781 1076.097656 C 1711.921875 1081.5625 1684.601562 1063.195312 1679.128906 1035.3125 C 1673.660156 1007.421875 1692.03125 980.089844 1719.921875 974.625 L 1781.46875 962.566406 C 1778.511719 961.003906 1775.480469 959.582031 1772.378906 958.308594 C 1761 953.628906 1748.890625 950.976562 1736.589844 950.472656 Z M 1806.179688 980.613281 L 1724.238281 996.667969 C 1708.261719 999.800781 1698.039062 1015.011719 1701.179688 1030.988281 C 1704.308594 1046.960938 1719.511719 1057.179688 1735.480469 1054.050781 L 1835.539062 1034.441406 C 1831.300781 1013.988281 1821.078125 995.253906 1806.179688 980.613281 "/>
<path fill-rule="nonzero" fill="rgb(0%, 0%, 0%)" fill-opacity="1" d="M 1998.171875 820 C 1987.441406 820.460938 1977.339844 825.171875 1970.078125 833.078125 L 1853.839844 959.828125 L 1722.078125 985.648438 C 1711.539062 987.710938 1702.261719 993.875 1696.28125 1002.785156 C 1690.289062 1011.691406 1688.089844 1022.617188 1690.148438 1033.148438 C 1694.449219 1055.078125 1715.710938 1069.371094 1737.640625 1065.074219 L 1882.460938 1036.691406 C 1890.929688 1035.027344 1898.648438 1030.695312 1904.488281 1024.328125 L 2029.738281 887.78125 C 2044.839844 871.308594 2043.730469 845.71875 2027.261719 830.609375 C 2019.351562 823.359375 2008.890625 819.539062 1998.171875 820 "/>
<path fill-rule="nonzero" fill="rgb(0%, 0%, 0%)" fill-opacity="1" d="M 1674.089844 1312.546875 C 1658.019531 1313.453125 1642.960938 1320.710938 1632.238281 1332.71875 L 1518.851562 1459.703125 L 1299.511719 1447.039062 C 1283.441406 1446.113281 1267.660156 1451.605469 1255.640625 1462.316406 C 1243.621094 1473.023438 1236.339844 1488.066406 1235.410156 1504.140625 C 1234.480469 1520.210938 1239.980469 1535.992188 1250.691406 1548.015625 C 1261.398438 1560.035156 1276.441406 1567.308594 1292.511719 1568.238281 L 1541.101562 1582.578125 C 1559.589844 1583.648438 1577.550781 1576.226562 1589.878906 1562.417969 L 1722.789062 1413.582031 C 1733.511719 1401.574219 1739.03125 1385.796875 1738.121094 1369.726562 C 1737.210938 1353.652344 1729.949219 1338.597656 1717.949219 1327.878906 C 1705.941406 1317.152344 1690.160156 1311.636719 1674.089844 1312.546875 "/>
<path fill-rule="nonzero" fill="rgb(0%, 0%, 0%)" fill-opacity="1" d="M 4048.648438 925.921875 C 4040.128906 925.609375 4031.71875 928 4024.640625 932.761719 L 3886.351562 1025.5625 C 3867.789062 1038.015625 3862.851562 1063.15625 3875.300781 1081.714844 C 3887.75 1100.269531 3912.890625 1105.21875 3931.449219 1092.765625 L 4056.449219 1008.871094 L 4115.058594 1018.4375 C 4131.929688 992.613281 4144.820312 974.949219 4144.859375 974.890625 C 4153.089844 963.453125 4163.191406 953.78125 4174.558594 946.144531 L 4053.699219 926.421875 C 4052.03125 926.148438 4050.339844 925.980469 4048.648438 925.921875 Z M 4208.75 953.96875 C 4190.648438 960.246094 4174.621094 971.988281 4163.101562 988.003906 C 4163.089844 988.023438 4163.070312 988.046875 4163.050781 988.066406 C 4163.050781 988.066406 4153.109375 1001.71875 4139.371094 1022.402344 L 4183.289062 1029.574219 C 4184.46875 1029.734375 4185.648438 1029.847656 4186.839844 1029.90625 C 4186.039062 1026.570312 4185.5 1023.136719 4185.269531 1019.609375 C 4183.609375 994.621094 4197.039062 971.890625 4217.691406 960.394531 C 4215.019531 957.855469 4212.011719 955.691406 4208.75 953.96875 "/>
<path fill-rule="nonzero" fill="rgb(0%, 0%, 0%)" fill-opacity="1" d="M 4243.25 937.601562 C 4208.039062 936.390625 4174.550781 952.839844 4153.980469 981.445312 C 4153.980469 981.445312 4114.621094 1035.390625 4083.808594 1092.152344 C 4057.769531 1140.136719 4052.429688 1182.0625 4047.390625 1217.554688 C 4042.351562 1253.042969 4041.128906 1282.046875 4041.128906 1282.046875 C 4038.609375 1340.25 4083.761719 1389.472656 4141.96875 1391.984375 C 4200.171875 1394.5 4249.390625 1349.351562 4251.910156 1291.148438 C 4251.910156 1291.148438 4252.769531 1271.886719 4256.28125 1247.21875 C 4259.78125 1222.546875 4269.449219 1192.414062 4269.238281 1192.792969 L 4269.230469 1192.792969 C 4290.101562 1154.355469 4325.289062 1104.601562 4325.289062 1104.601562 C 4334.621094 1091.609375 4340.878906 1076.671875 4343.601562 1060.90625 L 4251.480469 1067.023438 C 4223.128906 1068.90625 4198.359375 1047.21875 4196.46875 1018.863281 C 4194.589844 990.507812 4216.269531 965.734375 4244.628906 963.855469 L 4304.539062 959.875 C 4303.449219 959.019531 4302.339844 958.183594 4301.21875 957.371094 C 4289.96875 949.285156 4277.238281 943.492188 4263.75 940.324219 C 4257.019531 938.75 4250.148438 937.828125 4243.25 937.601562 Z M 4324.980469 981.03125 L 4246.121094 986.265625 C 4229.878906 987.34375 4217.808594 1001.128906 4218.890625 1017.371094 C 4219.960938 1033.617188 4233.75 1045.6875 4249.988281 1044.605469 L 4345.011719 1038.296875 C 4344.078125 1017.65625 4337.121094 997.746094 4324.980469 981.03125 "/>
<path fill-rule="nonzero" fill="rgb(0%, 0%, 0%)" fill-opacity="1" d="M 4406.261719 743.511719 C 4349.730469 743.011719 4300.371094 781.671875 4287.308594 836.671875 C 4276.621094 881.71875 4292.53125 928.921875 4328.320312 958.296875 L 4400.699219 953.488281 L 4525.988281 874.089844 C 4530.628906 814.601562 4491.25 760.578125 4433.191406 746.789062 C 4424.359375 744.691406 4415.328125 743.589844 4406.261719 743.511719 Z M 4519.410156 904.859375 L 4410.308594 973.992188 C 4408.71875 974.996094 4406.910156 975.589844 4405.039062 975.714844 L 4363.789062 978.453125 C 4368.171875 980.078125 4372.648438 981.445312 4377.191406 982.554688 C 4437.488281 996.835938 4498.851562 963.3125 4519.410156 904.859375 "/>
<path fill-rule="nonzero" fill="rgb(0%, 0%, 0%)" fill-opacity="1" d="M 4172.878906 1299.214844 C 4187.441406 1321.207031 4189.410156 1350.46875 4175.460938 1374.820312 L 4174.390625 1376.679688 C 4194.980469 1370.335938 4212.621094 1357.128906 4224.53125 1339.59375 C 4216.691406 1317.191406 4196.511719 1301.417969 4172.878906 1299.214844 Z M 4146.511719 1302.609375 C 4122.988281 1311.144531 4107.121094 1333.230469 4106.53125 1358.242188 L 4106.238281 1371.878906 C 4117.261719 1377.066406 4129.488281 1380.203125 4142.449219 1380.761719 C 4143.679688 1380.816406 4144.898438 1380.839844 4146.121094 1380.84375 L 4155.96875 1363.65625 C 4155.96875 1363.652344 4155.96875 1363.652344 4155.96875 1363.652344 C 4167.75 1343.089844 4163.28125 1317.898438 4146.511719 1302.609375 Z M 4227.699219 1370.316406 C 4209.539062 1387.910156 4185.769531 1399.644531 4159.550781 1402.589844 L 4103.558594 1500.324219 L 4101.558594 1595.929688 L 3970.511719 1716.652344 C 3945.851562 1739.363281 3944.28125 1777.765625 3966.988281 1802.417969 C 3977.898438 1814.261719 3993.058594 1821.28125 4009.148438 1821.941406 C 4025.230469 1822.601562 4040.921875 1816.84375 4052.761719 1805.9375 L 4202.820312 1667.695312 C 4214.96875 1656.5 4222.039062 1640.839844 4222.378906 1624.320312 Z M 4105.738281 1395.9375 L 4104.539062 1453.421875 L 4133.660156 1402.585938 C 4123.929688 1401.507812 4114.578125 1399.246094 4105.738281 1395.9375 "/>
<path fill-rule="nonzero" fill="rgb(0%, 0%, 0%)" fill-opacity="1" d="M 4622.808594 849.980469 C 4610.011719 843.28125 4594.589844 843.910156 4582.378906 851.648438 L 4404.300781 964.503906 L 4245.378906 975.0625 C 4234.671875 975.769531 4224.679688 980.707031 4217.609375 988.78125 C 4210.539062 996.855469 4206.96875 1007.410156 4207.679688 1018.117188 C 4208.390625 1028.828125 4213.328125 1038.816406 4221.398438 1045.886719 C 4229.480469 1052.953125 4240.03125 1056.527344 4250.738281 1055.816406 L 4419.941406 1044.574219 C 4426.691406 1044.128906 4433.210938 1042 4438.921875 1038.382812 L 4625.699219 920.011719 C 4634.769531 914.269531 4641.179688 905.160156 4643.53125 894.679688 C 4645.878906 884.210938 4643.96875 873.238281 4638.21875 864.171875 C 4634.421875 858.171875 4629.109375 853.28125 4622.808594 849.980469 "/>
<path fill-rule="nonzero" fill="rgb(0%, 0%, 0%)" fill-opacity="1" d="M 4112.851562 1278.363281 C 4091.160156 1278.433594 4071.160156 1290.070312 4060.378906 1308.886719 L 3968.109375 1469.933594 L 3790.609375 1471.714844 C 3757.089844 1472.054688 3730.191406 1499.503906 3730.519531 1533.019531 C 3730.691406 1549.117188 3737.230469 1564.492188 3748.730469 1575.761719 C 3760.230469 1587.03125 3775.730469 1593.269531 3791.828125 1593.109375 L 4004.101562 1590.976562 C 4025.640625 1590.757812 4045.449219 1579.140625 4056.160156 1560.453125 L 4165.710938 1369.238281 C 4173.71875 1355.269531 4175.839844 1338.695312 4171.628906 1323.15625 C 4167.410156 1307.621094 4157.191406 1294.394531 4143.230469 1286.394531 C 4133.980469 1281.097656 4123.5 1278.328125 4112.851562 1278.363281 "/>
<path fill-rule="nonzero" fill="rgb(0%, 0%, 0%)" fill-opacity="1" d="M 5442.121094 1535.945312 C 5419.929688 1535.457031 5401.480469 1552.933594 5400.78125 1575.117188 L 5399.710938 1608.539062 C 5424.210938 1599.085938 5452.921875 1590.816406 5487.96875 1588.273438 C 5512.5 1586.496094 5537.21875 1585.972656 5558.570312 1586.003906 C 5594.070312 1586.054688 5620.328125 1587.648438 5620.449219 1587.65625 L 5620.46875 1587.65625 C 5622.789062 1587.78125 5625.089844 1587.996094 5627.378906 1588.257812 L 5452.488281 1537.535156 C 5449.109375 1536.558594 5445.621094 1536.023438 5442.109375 1535.945312 Z M 5558.539062 1608.464844 C 5537.589844 1608.4375 5513.359375 1608.957031 5489.589844 1610.683594 C 5452.910156 1613.339844 5424.128906 1622.59375 5398.929688 1633.03125 L 5396.78125 1700.414062 C 5396.058594 1722.75 5413.589844 1741.4375 5435.921875 1742.15625 C 5446.648438 1742.503906 5457.078125 1738.570312 5464.910156 1731.226562 C 5472.738281 1723.882812 5477.328125 1713.730469 5477.671875 1703 L 5480 1629.785156 L 5590.320312 1661.777344 C 5601.800781 1654.210938 5615.558594 1650.5 5629.398438 1651.410156 C 5635.128906 1651.789062 5640.878906 1652.984375 5646.460938 1655 C 5650.828125 1650.355469 5654.039062 1644.746094 5655.828125 1638.628906 C 5657.570312 1632.601562 5657.890625 1626.25 5656.761719 1620.078125 C 5645.429688 1614.339844 5632.75 1610.8125 5619.261719 1610.085938 C 5619.230469 1610.085938 5619.199219 1610.082031 5619.179688 1610.078125 C 5619.179688 1610.078125 5593.46875 1608.515625 5558.550781 1608.464844 "/>
<path fill-rule="nonzero" fill="rgb(0%, 0%, 0%)" fill-opacity="1" d="M 5558.558594 1597.230469 C 5537.410156 1597.203125 5512.941406 1597.726562 5488.78125 1599.476562 C 5434.328125 1603.425781 5396.148438 1621.542969 5363.550781 1636.4375 C 5330.941406 1651.335938 5305.859375 1665.949219 5305.859375 1665.949219 C 5255.488281 1695.222656 5238.390625 1759.785156 5267.660156 1810.15625 C 5296.941406 1860.527344 5361.5 1877.628906 5411.871094 1848.355469 C 5411.871094 1848.355469 5428.550781 1838.691406 5451.210938 1828.335938 C 5473.878906 1817.984375 5504.46875 1809.878906 5504.039062 1809.90625 C 5547.660156 1806.746094 5608.53125 1809.546875 5608.53125 1809.546875 C 5629.78125 1810.667969 5650.859375 1805.339844 5669.019531 1794.265625 L 5601.800781 1760.308594 C 5576.421875 1747.496094 5566.140625 1716.222656 5578.949219 1690.855469 C 5578.949219 1690.851562 5578.949219 1690.851562 5578.949219 1690.851562 C 5588.558594 1671.828125 5608.558594 1661.292969 5628.648438 1662.617188 C 5635.351562 1663.058594 5642.050781 1664.816406 5648.390625 1668.019531 L 5719.660156 1704.015625 C 5719.558594 1648.039062 5675.75 1601.886719 5619.859375 1598.871094 C 5619.859375 1598.871094 5593.820312 1597.28125 5558.558594 1597.230469 Z M 5624.921875 1684.875 C 5614.300781 1684.902344 5604.171875 1690.765625 5599 1700.980469 C 5591.671875 1715.511719 5597.390625 1732.917969 5611.929688 1740.257812 L 5688.480469 1778.921875 C 5702.589844 1764.902344 5712.449219 1747.175781 5716.910156 1727.789062 L 5638.28125 1688.074219 C 5634.648438 1686.238281 5630.828125 1685.21875 5627.050781 1684.949219 C 5626.339844 1684.898438 5625.628906 1684.871094 5624.921875 1684.875 "/>
<path fill-rule="nonzero" fill="rgb(0%, 0%, 0%)" fill-opacity="1" d="M 5853.621094 1536.597656 C 5841.519531 1537.046875 5829.558594 1539.308594 5818.128906 1543.304688 C 5754.96875 1565.394531 5721.671875 1634.507812 5743.761719 1697.675781 C 5746.75 1706.242188 5750.699219 1714.445312 5755.53125 1722.132812 L 5795.269531 1742.199219 L 5954.179688 1731.519531 C 5979.109375 1699.097656 5986 1656.285156 5972.5 1617.679688 C 5954.949219 1567.5 5906.738281 1534.617188 5853.621094 1536.597656 Z M 5929.328125 1755.703125 L 5800.730469 1764.351562 C 5830.679688 1780.46875 5866.019531 1783.265625 5898.128906 1772.050781 C 5909.269531 1768.148438 5919.78125 1762.644531 5929.328125 1755.703125 "/>
<path fill-rule="nonzero" fill="rgb(0%, 0%, 0%)" fill-opacity="1" d="M 4943.039062 1606.222656 C 4922.390625 1606.671875 4903.390625 1617.59375 4892.601562 1635.207031 C 4890.179688 1639.253906 4888.238281 1643.566406 4886.820312 1648.058594 C 4891.921875 1646.679688 4897.191406 1645.855469 4902.539062 1645.628906 C 4911.871094 1645.234375 4921.421875 1646.664062 4930.691406 1650.144531 L 5135.921875 1727.222656 L 5158.140625 1726.601562 L 4976.058594 1615.140625 C 4966.140625 1609.0625 4954.679688 1605.96875 4943.039062 1606.222656 Z M 4905.769531 1667.96875 C 4904.960938 1667.960938 4904.160156 1667.972656 4903.359375 1668.003906 C 4896.621094 1668.265625 4890.089844 1669.9375 4884.109375 1672.785156 C 4885.921875 1691.710938 4896.488281 1708.691406 4912.671875 1718.667969 L 5121.761719 1846.675781 C 5123.160156 1847.488281 5124.589844 1848.242188 5126.050781 1848.9375 L 5266.03125 1845.035156 L 5381.339844 1833.914062 C 5382.039062 1833.84375 5382.730469 1833.761719 5383.429688 1833.664062 C 5396.601562 1824.480469 5404.988281 1809.058594 5404.511719 1791.699219 C 5403.75 1764.257812 5381.128906 1742.859375 5353.691406 1743.628906 L 5134.351562 1749.738281 C 5132.890625 1749.777344 5131.449219 1749.539062 5130.089844 1749.027344 L 4922.789062 1671.171875 C 4917.171875 1669.0625 4911.421875 1668.027344 4905.769531 1667.96875 Z M 5378.339844 1712.859375 C 5375.449219 1712.726562 5372.558594 1712.796875 5369.679688 1713.074219 L 5258.390625 1723.808594 L 5353.058594 1721.171875 C 5392.640625 1720.066406 5425.871094 1751.492188 5426.96875 1791.074219 C 5426.96875 1791.078125 5426.96875 1791.078125 5426.96875 1791.078125 C 5427.128906 1796.90625 5426.570312 1802.589844 5425.398438 1808.0625 C 5433.570312 1796.265625 5437.308594 1781.953125 5435.929688 1767.664062 C 5433.039062 1737.617188 5408.5 1714.265625 5378.339844 1712.859375 "/>
<path fill-rule="nonzero" fill="rgb(0%, 0%, 0%)" fill-opacity="1" d="M 5353.378906 1732.398438 L 5134.039062 1738.511719 L 4926.738281 1660.65625 C 4895.359375 1648.871094 4860.371094 1664.757812 4848.578125 1696.136719 C 4842.921875 1711.207031 4843.46875 1727.910156 4850.128906 1742.570312 C 4856.78125 1757.230469 4868.988281 1768.644531 4884.058594 1774.308594 L 5102.488281 1856.339844 C 5109.839844 1859.101562 5117.671875 1860.40625 5125.519531 1860.1875 L 5356.761719 1853.742188 C 5390.269531 1852.808594 5416.671875 1824.894531 5415.738281 1791.386719 C 5415.300781 1775.292969 5408.46875 1760.039062 5396.78125 1748.976562 C 5385.078125 1737.914062 5369.46875 1731.949219 5353.378906 1732.398438 "/>
<path fill-rule="nonzero" fill="rgb(0%, 0%, 0%)" fill-opacity="1" d="M 5643.339844 1678.046875 C 5623.390625 1667.96875 5599.050781 1675.96875 5588.980469 1695.914062 C 5584.140625 1705.496094 5583.300781 1716.605469 5586.660156 1726.804688 C 5590.011719 1737 5597.28125 1745.445312 5606.859375 1750.28125 L 5766.359375 1830.847656 C 5772.839844 1834.117188 5780.078125 1835.589844 5787.308594 1835.105469 L 5984.800781 1821.828125 C 5995.511719 1821.113281 6005.5 1816.167969 6012.558594 1808.085938 C 6019.628906 1800.003906 6023.191406 1789.445312 6022.46875 1778.734375 C 6020.96875 1756.441406 6001.679688 1739.585938 5979.378906 1741.082031 L 5792.949219 1753.613281 L 5643.339844 1678.046875 "/>
<path fill-rule="nonzero" fill="rgb(0%, 0%, 0%)" fill-opacity="1" d="M 2930.359375 1320.699219 C 2916.101562 1320.183594 2902.109375 1324.710938 2890.851562 1333.484375 L 2833.539062 1378.164062 C 2846.03125 1419.042969 2885.171875 1447.390625 2929.75 1444.492188 C 2937.039062 1444.019531 2944.070312 1442.707031 2950.769531 1440.707031 L 2965.488281 1429.234375 C 2978.191406 1419.339844 2986.429688 1404.804688 2988.410156 1388.824219 C 2990.390625 1372.847656 2985.941406 1356.738281 2976.050781 1344.042969 C 2969.5 1335.640625 2960.851562 1329.109375 2950.96875 1325.105469 C 2944.410156 1322.445312 2937.441406 1320.953125 2930.359375 1320.699219 Z M 2564.53125 1371.113281 C 2536.640625 1369.550781 2511.289062 1387.214844 2503.101562 1413.914062 C 2498.378906 1429.304688 2499.96875 1445.941406 2507.511719 1460.160156 C 2515.058594 1474.382812 2527.941406 1485.023438 2543.328125 1489.746094 L 2760.359375 1556.316406 C 2779.289062 1562.125 2799.859375 1558.335938 2815.480469 1546.164062 L 2917.089844 1466.960938 C 2870.980469 1464.398438 2831.199219 1434.652344 2814.851562 1392.730469 L 2765.761719 1430.996094 L 2578.929688 1373.683594 C 2574.25 1372.25 2569.410156 1371.386719 2564.53125 1371.113281 "/>
<path fill-rule="nonzero" fill="rgb(0%, 0%, 0%)" fill-opacity="1" d="M 2988.878906 1044.101562 C 2985.511719 1053.15625 2985.5 1063.121094 2988.839844 1072.1875 L 2993.269531 1084.035156 L 3080.761719 1122.875 C 3083.199219 1113.886719 3084.21875 1104.625 3083.898438 1095.347656 L 3079.210938 1082.785156 L 2995.5 1045.621094 L 2995.511719 1045.621094 C 2994.070312 1044.984375 2992.558594 1044.539062 2991.011719 1044.292969 C 2991 1044.292969 2991 1044.292969 2991 1044.292969 C 2990.300781 1044.179688 2989.589844 1044.117188 2988.878906 1044.09375 Z M 3099.761719 1137.746094 C 3099.191406 1139.316406 3098.601562 1140.882812 3097.960938 1142.433594 C 3097.910156 1142.53125 3097.859375 1142.628906 3097.800781 1142.722656 L 3102.378906 1144.753906 Z M 3015.300781 1142.957031 L 3039.480469 1207.632812 C 3047.519531 1190.855469 3055.71875 1175.179688 3061.871094 1163.632812 Z M 3087.621094 1162.773438 C 3087.5 1163.046875 3087.378906 1163.3125 3087.238281 1163.570312 C 3079.671875 1177.539062 3063.011719 1209.09375 3050.589844 1237.339844 L 3052.601562 1242.703125 C 3059.179688 1260.308594 3077.019531 1271.0625 3095.671875 1268.664062 L 3238.339844 1250.300781 C 3260.5 1247.445312 3276.160156 1227.164062 3273.300781 1204.996094 C 3271.640625 1192.199219 3263.960938 1180.960938 3252.648438 1174.753906 L 3157.558594 1185.925781 C 3148.839844 1186.953125 3140 1185.734375 3131.890625 1182.402344 L 3117.171875 1184.300781 L 3113.390625 1174.21875 L 3087.621094 1162.773438 "/>
<path fill-rule="nonzero" fill="rgb(0%, 0%, 0%)" fill-opacity="1" d="M 2993.308594 992.792969 C 2954.121094 991.539062 2917.46875 1012.128906 2898.148438 1046.246094 C 2898.148438 1046.246094 2864.828125 1104.121094 2840.320312 1163.878906 C 2819.609375 1214.386719 2818.828125 1256.644531 2817.640625 1292.472656 C 2816.460938 1328.300781 2818.371094 1357.261719 2818.371094 1357.261719 C 2822.148438 1415.398438 2872.339844 1459.464844 2930.480469 1455.6875 C 2988.609375 1451.910156 3032.679688 1401.71875 3028.898438 1343.582031 C 3028.898438 1343.582031 3027.679688 1324.34375 3028.511719 1299.4375 C 3029.328125 1274.535156 3035.691406 1243.53125 3035.53125 1243.933594 C 3048.410156 1212.519531 3068.730469 1174.15625 3077.359375 1158.222656 L 2967.230469 1109.328125 C 2941.25 1097.796875 2929.421875 1067.070312 2940.949219 1041.09375 C 2948.441406 1024.234375 2964.398438 1012.617188 2982.738281 1010.671875 C 2987.25 1010.191406 2991.789062 1010.308594 2996.238281 1011.007812 C 3000.679688 1011.707031 3005.03125 1012.984375 3009.179688 1014.824219 L 3082.300781 1047.285156 C 3072.878906 1030.199219 3058.898438 1016.058594 3041.929688 1006.4375 C 3029.871094 999.609375 3016.589844 995.222656 3002.839844 993.527344 C 2999.679688 993.140625 2996.5 992.894531 2993.308594 992.792969 Z M 2988.949219 1032.855469 C 2987.679688 1032.820312 2986.390625 1032.871094 2985.121094 1033.007812 C 2985.121094 1033.007812 2985.121094 1033.007812 2985.109375 1033.007812 C 2974.710938 1034.109375 2965.730469 1040.652344 2961.480469 1050.214844 C 2954.871094 1065.09375 2961.460938 1082.195312 2976.339844 1088.800781 L 3087.570312 1138.179688 C 3095.539062 1118.710938 3097.5 1097.304688 3093.210938 1076.710938 L 3000.058594 1035.355469 C 2997.71875 1034.3125 2995.261719 1033.59375 2992.75 1033.199219 C 2991.488281 1033.003906 2990.21875 1032.882812 2988.949219 1032.855469 "/>
<path fill-rule="nonzero" fill="rgb(0%, 0%, 0%)" fill-opacity="1" d="M 3015.078125 887.941406 C 3023.441406 821.539062 3084.03125 774.488281 3150.421875 782.839844 C 3216.820312 791.199219 3263.871094 851.789062 3255.511719 918.191406 C 3247.160156 984.578125 3186.570312 1031.628906 3120.171875 1023.277344 C 3053.78125 1014.925781 3006.730469 954.328125 3015.078125 887.941406 "/>
<path fill-rule="nonzero" fill="rgb(0%, 0%, 0%)" fill-opacity="1" d="M 2966.289062 1340.160156 C 2955.640625 1340.457031 2945.25 1343.550781 2936.179688 1349.132812 C 2922.46875 1357.570312 2912.671875 1371.109375 2908.941406 1386.769531 C 2905.210938 1402.429688 2907.859375 1418.933594 2916.289062 1432.644531 L 3023.679688 1607.164062 L 3076.53125 1804.722656 C 3080.691406 1820.273438 3090.859375 1833.535156 3104.800781 1841.589844 C 3118.738281 1849.644531 3135.300781 1851.832031 3150.851562 1847.667969 C 3183.238281 1839.003906 3202.460938 1805.730469 3193.800781 1773.351562 L 3138.660156 1567.21875 C 3137.140625 1561.535156 3134.800781 1556.105469 3131.71875 1551.097656 L 3019.679688 1369.023438 C 3008.320312 1350.554688 2987.96875 1339.550781 2966.289062 1340.160156 "/>
<path fill-rule="nonzero" fill="rgb(0%, 0%, 0%)" fill-opacity="1" d="M 2983.929688 1021.839844 C 2969.558594 1023.363281 2957.089844 1032.441406 2951.21875 1045.652344 C 2946.859375 1055.464844 2946.578125 1066.601562 2950.441406 1076.617188 C 2954.289062 1086.632812 2961.96875 1094.707031 2971.78125 1099.0625 L 3135.109375 1171.570312 C 3141.738281 1174.515625 3149.039062 1175.621094 3156.25 1174.773438 L 3352.828125 1151.667969 C 3375.03125 1149.058594 3390.910156 1128.953125 3388.300781 1106.757812 C 3385.691406 1084.558594 3365.578125 1068.683594 3343.390625 1071.289062 L 3157.820312 1093.105469 L 3004.621094 1025.089844 C 2998.128906 1022.210938 2990.988281 1021.085938 2983.929688 1021.839844 "/>
<path fill-rule="nonzero" fill="rgb(0%, 0%, 0%)" fill-opacity="1" d="M 6687.671875 1445.144531 C 6687.671875 1449.371094 6689.238281 1453.625 6692.46875 1457.183594 C 6694.339844 1459.25 6695.378906 1461.9375 6695.378906 1464.730469 L 6695.378906 1460.398438 L 6745.460938 1515.585938 C 6745.539062 1515.394531 6746.300781 1513.410156 6746.300781 1513.410156 C 6746.308594 1513.378906 6746.328125 1513.351562 6746.339844 1513.320312 C 6748.320312 1508.5 6749.851562 1503.535156 6750.980469 1498.488281 L 6708.71875 1456.183594 C 6702.96875 1450.472656 6695.628906 1446.625 6687.671875 1445.144531 Z M 6645.808594 1463.832031 C 6636.210938 1479.664062 6638.640625 1500.003906 6651.691406 1513.136719 L 6721.128906 1582.652344 C 6723.328125 1576.003906 6725.589844 1569.390625 6727.828125 1563.019531 L 6659.191406 1487.375 C 6652.859375 1480.394531 6648.421875 1472.332031 6645.808594 1463.832031 Z M 6769.121094 1516.652344 C 6768.5 1518.402344 6767.851562 1520.140625 6767.140625 1521.863281 C 6767.109375 1521.933594 6764.171875 1529.265625 6759.878906 1540.574219 C 6759.210938 1542.207031 6758.148438 1543.65625 6756.808594 1544.808594 L 6790.179688 1581.582031 L 6790.179688 1581.585938 C 6795.78125 1587.75 6803.738281 1591.214844 6812.058594 1591.109375 L 6836.160156 1590.816406 C 6836.078125 1586.847656 6838.101562 1583.136719 6841.480469 1581.046875 C 6852.140625 1574.652344 6864.28125 1571.140625 6876.699219 1570.855469 C 6876.710938 1570.855469 6876.71875 1570.855469 6876.730469 1570.855469 C 6879.898438 1570.785156 6883.078125 1570.929688 6886.230469 1571.285156 C 6895.851562 1572.367188 6905.148438 1575.390625 6913.558594 1580.164062 C 6917.03125 1582.136719 6919.199219 1585.804688 6919.238281 1589.796875 L 6974.429688 1589.117188 C 6981.898438 1589.027344 6988.640625 1586.191406 6993.699219 1581.578125 C 6991.101562 1560.5 6972.578125 1545.058594 6951.378906 1546.285156 L 6807.410156 1554.972656 Z M 6749.210938 1569.863281 C 6745.710938 1579.808594 6742.199219 1590.253906 6739 1600.539062 L 6763.199219 1624.769531 C 6764.160156 1625.6875 6765.160156 1626.558594 6766.210938 1627.378906 L 6793.808594 1610.363281 C 6786.140625 1607.523438 6779.160156 1602.871094 6773.550781 1596.683594 C 6773.550781 1596.683594 6773.550781 1596.679688 6773.550781 1596.679688 Z M 6986.511719 1610.042969 C 6982.71875 1610.992188 6978.769531 1611.53125 6974.699219 1611.582031 L 6949.398438 1611.894531 L 6963.351562 1625.578125 C 6972.679688 1623.320312 6980.890625 1617.8125 6986.511719 1610.042969 Z M 6929 1623.375 L 6813.191406 1624.792969 L 6794.179688 1636.507812 L 6933.808594 1628.089844 L 6929 1623.375 "/>
<path fill-rule="nonzero" fill="rgb(0%, 0%, 0%)" fill-opacity="1" d="M 6675.011719 1283.046875 C 6675.011719 1216.40625 6729.03125 1162.382812 6795.671875 1162.382812 C 6862.320312 1162.382812 6916.339844 1216.40625 6916.339844 1283.046875 C 6916.339844 1349.691406 6862.320312 1403.714844 6795.671875 1403.714844 C 6729.03125 1403.714844 6675.011719 1349.691406 6675.011719 1283.046875 "/>
<path fill-rule="nonzero" fill="rgb(0%, 0%, 0%)" fill-opacity="1" d="M 6663.878906 1372.664062 C 6657.769531 1372.410156 6651.648438 1372.695312 6645.589844 1373.511719 L 6645.578125 1373.511719 C 6608.378906 1378.507812 6576.671875 1402.96875 6562.398438 1437.6875 C 6562.398438 1437.6875 6536.660156 1499.011719 6519.878906 1561.105469 C 6505.691406 1613.589844 6510.171875 1655.441406 6513.460938 1690.988281 C 6516.738281 1726.535156 6522.230469 1754.921875 6522.230469 1754.921875 C 6528.441406 1786.945312 6549.171875 1814.273438 6578.351562 1828.878906 C 6596.171875 1856.472656 6632.78125 1864.78125 6660.769531 1847.578125 L 6869.679688 1718.804688 L 7000.601562 1847.167969 C 7024.441406 1870.539062 7062.710938 1870.160156 7086.078125 1846.324219 C 7109.460938 1822.488281 7109.078125 1784.21875 7085.25 1760.839844 L 6933.539062 1612.085938 L 6812.339844 1613.570312 C 6811.570312 1613.578125 6810.808594 1613.5625 6810.050781 1613.539062 L 6722.359375 1667.589844 C 6720.660156 1643.636719 6722.820312 1615.546875 6722.710938 1615.9375 C 6727.53125 1598.128906 6734.328125 1577.945312 6740.609375 1560.386719 L 6667.511719 1479.828125 C 6648.480469 1458.847656 6650.078125 1426.070312 6671.050781 1407.039062 C 6681.171875 1397.859375 6694.519531 1393.070312 6708.171875 1393.730469 C 6715.960938 1394.109375 6723.480469 1396.25 6730.210938 1399.894531 C 6721.179688 1391.6875 6710.800781 1385.109375 6699.519531 1380.464844 C 6688.179688 1375.804688 6676.121094 1373.164062 6663.878906 1372.660156 Z M 6705.640625 1416.132812 C 6698.449219 1416.144531 6691.5 1418.816406 6686.148438 1423.675781 C 6674.160156 1434.550781 6673.28125 1452.742188 6684.148438 1464.730469 L 6684.148438 1464.734375 L 6749.359375 1536.59375 C 6753.699219 1525.140625 6756.730469 1517.59375 6756.730469 1517.59375 C 6763.410156 1501.34375 6765.910156 1483.683594 6764 1466.222656 L 6727.199219 1425.671875 C 6722.019531 1419.957031 6714.789062 1416.542969 6707.078125 1416.167969 C 6706.601562 1416.144531 6706.121094 1416.132812 6705.640625 1416.132812 Z M 6876.941406 1582.085938 C 6866.460938 1582.324219 6856.230469 1585.285156 6847.238281 1590.679688 L 6908.011719 1589.933594 C 6900.910156 1585.90625 6893.070312 1583.359375 6884.960938 1582.445312 C 6882.300781 1582.148438 6879.621094 1582.027344 6876.941406 1582.085938 "/>
<path fill-rule="nonzero" fill="rgb(0%, 0%, 0%)" fill-opacity="1" d="M 6707.628906 1404.949219 C 6696.949219 1404.433594 6686.511719 1408.175781 6678.601562 1415.355469 C 6662.121094 1430.3125 6660.878906 1455.796875 6675.828125 1472.277344 L 6781.871094 1589.132812 C 6789.621094 1597.675781 6800.671875 1602.484375 6812.199219 1602.339844 L 6974.570312 1600.351562 C 6985.261719 1600.222656 6995.460938 1595.851562 7002.921875 1588.199219 C 7010.390625 1580.550781 7014.511719 1570.246094 7014.371094 1559.5625 C 7014.238281 1548.871094 7009.871094 1538.675781 7002.21875 1531.210938 C 6994.570312 1523.746094 6984.269531 1519.628906 6973.578125 1519.757812 L 6829.359375 1521.523438 L 6735.519531 1418.121094 C 6728.339844 1410.207031 6718.300781 1405.46875 6707.628906 1404.949219 "/>

</svg>
