<?xml version="1.0" encoding="UTF-8"?>
<svg xmlns="http://www.w3.org/2000/svg" xmlns:xlink="http://www.w3.org/1999/xlink" width="4254.49" height="1514.18" viewBox="0 0 4254.49 1514.18">
<path fill-rule="nonzero" fill="rgb(0%, 0%, 0%)" fill-opacity="1" d="M 866.664062 834.773438 C 866.535156 834.773438 866.390625 834.777344 866.234375 834.796875 C 865.949219 834.832031 865.6875 834.898438 865.433594 835.003906 L 853.648438 839.742188 L 853.515625 846.6875 L 867.8125 840.933594 C 870.03125 840.039062 870.480469 838.988281 869.585938 836.773438 C 869.128906 835.632812 868.296875 834.980469 867.070312 834.808594 C 867.070312 834.808594 867.066406 834.804688 867.0625 834.804688 C 866.925781 834.785156 866.792969 834.773438 866.664062 834.773438 Z M 916.121094 871.402344 C 909.695312 881.039062 900.453125 888.90625 888.980469 893.523438 L 852.304688 908.277344 L 851.714844 938.332031 L 878.988281 979.550781 L 878.988281 979.554688 C 883.707031 986.683594 886.664062 994.5 887.996094 1002.476562 L 901.699219 1017.378906 C 901.199219 1008.617188 901.265625 999.800781 901.46875 992.644531 C 901.59375 988.226562 901.769531 984.453125 901.914062 981.808594 C 901.984375 980.484375 902.046875 979.441406 902.085938 978.765625 C 902.105469 978.429688 902.121094 978.175781 902.125 978.105469 C 902.128906 978.070312 902.125 978.035156 902.117188 978.289062 C 902.113281 978.417969 902.074219 978.371094 902.140625 979.476562 C 902.15625 979.753906 902.300781 980.921875 902.300781 980.921875 C 902.300781 980.921875 902.605469 981.546875 902.675781 981.691406 C 902.105469 979.472656 902.078125 977.148438 902.601562 974.917969 C 905.976562 962.429688 910.480469 948.6875 914.847656 936.207031 Z M 936.230469 961.738281 C 934.085938 968.347656 932.03125 974.933594 930.347656 981.066406 C 930.308594 981.699219 930.269531 982.363281 930.21875 983.335938 C 930.085938 985.8125 929.917969 989.34375 929.800781 993.449219 C 929.566406 1001.660156 929.570312 1012.257812 930.371094 1020.921875 C 931.410156 1032.1875 932.746094 1041.316406 933.6875 1047.148438 C 944.820312 1051.335938 957.363281 1048.898438 966.121094 1040.847656 C 972.28125 1035.1875 975.9375 1027.308594 976.285156 1018.953125 C 976.636719 1010.59375 973.652344 1002.4375 967.992188 996.28125 Z M 929.964844 982.3125 C 929.003906 983.652344 927.816406 984.8125 926.453125 985.746094 C 926.847656 985.699219 928.6875 985.480469 928.6875 985.480469 C 928.6875 985.480469 929.835938 982.796875 929.964844 982.3125 Z M 905.011719 986.5 C 905.304688 987.097656 905.828125 988.179688 905.828125 988.179688 C 905.828125 988.179688 906.230469 988.132812 906.246094 988.132812 C 905.796875 987.617188 905.382812 987.074219 905.011719 986.5 "/>
<path fill-rule="nonzero" fill="rgb(0%, 0%, 0%)" fill-opacity="1" d="M 884.785156 724.964844 C 884.785156 672.804688 927.066406 630.523438 979.226562 630.523438 C 1031.378906 630.523438 1073.671875 672.804688 1073.671875 724.964844 C 1073.671875 777.121094 1031.378906 819.402344 979.226562 819.402344 C 927.066406 819.402344 884.785156 777.121094 884.785156 724.964844 "/>
<path fill-rule="nonzero" fill="rgb(0%, 0%, 0%)" fill-opacity="1" d="M 868.261719 1035.996094 C 864.863281 1041.742188 860.164062 1046.820312 854.265625 1050.726562 C 843.53125 1057.824219 830.78125 1059.738281 819.039062 1057.101562 C 817.886719 1058.972656 816.863281 1060.921875 815.984375 1062.933594 C 818.582031 1062.285156 821.226562 1061.808594 823.90625 1061.507812 C 826.632812 1061.199219 829.351562 1061.074219 832.054688 1061.128906 C 850.957031 1061.511719 868.859375 1070.625 880.265625 1086.066406 L 963.601562 1198.871094 C 963.605469 1198.871094 963.605469 1198.871094 963.605469 1198.871094 C 977.78125 1218.058594 979.5625 1243.816406 968.167969 1264.773438 L 887.957031 1412.292969 C 887.957031 1412.292969 887.953125 1412.292969 887.953125 1412.292969 C 885.882812 1416.105469 883.449219 1419.609375 880.730469 1422.789062 C 899.105469 1425.941406 917.617188 1418.007812 928.007812 1402.53125 L 986.019531 1315.578125 L 1024.699219 1257.589844 C 1036.410156 1240.039062 1035.078125 1216.855469 1021.449219 1200.753906 L 895.164062 1051.6875 C 888.226562 1043.570312 878.742188 1038.039062 868.261719 1035.996094 Z M 831.488281 1089.464844 C 830.03125 1089.4375 828.5625 1089.503906 827.089844 1089.671875 C 822.234375 1090.222656 817.585938 1091.847656 813.445312 1094.398438 C 815.214844 1101.175781 818.464844 1107.480469 822.964844 1112.847656 L 926.210938 1234.726562 L 907.304688 1263.0625 L 849.292969 1350.019531 C 837.0625 1368.472656 839.261719 1392.941406 854.59375 1408.914062 C 857.953125 1406.222656 860.851562 1402.8125 863.054688 1398.757812 L 863.050781 1398.757812 L 943.261719 1251.234375 C 949.425781 1239.890625 948.472656 1226.101562 940.800781 1215.714844 L 940.804688 1215.714844 L 857.472656 1102.910156 C 851.304688 1094.5625 841.691406 1089.667969 831.488281 1089.464844 "/>
<path fill-rule="nonzero" fill="rgb(0%, 0%, 0%)" fill-opacity="1" d="M 866.644531 788.148438 C 845.25 788.257812 824.738281 796.699219 809.464844 811.6875 L 849.558594 795.558594 C 853.28125 794.0625 857.167969 793.066406 861.117188 792.585938 C 865.066406 792.105469 869.082031 792.144531 873.054688 792.710938 L 873.054688 792.707031 C 889.203125 795 902.945312 805.773438 909.03125 820.902344 C 909.03125 820.902344 909.03125 820.902344 909.03125 820.90625 C 918.390625 844.175781 906.953125 871.015625 883.691406 880.375 L 814.730469 908.117188 L 867.167969 987.375 C 881.011719 1008.289062 875.183594 1036.886719 854.265625 1050.726562 C 833.347656 1064.5625 804.753906 1058.738281 790.917969 1037.824219 L 750.53125 976.78125 C 748.84375 999.597656 750.859375 1019.5 752.507812 1037.351562 C 755.078125 1065.175781 759.378906 1087.390625 759.378906 1087.390625 C 763.496094 1108.804688 775.953125 1127.703125 794.011719 1139.933594 C 812.066406 1152.160156 834.238281 1156.71875 855.652344 1152.597656 C 877.066406 1148.476562 895.96875 1136.019531 908.195312 1117.964844 C 920.425781 1099.910156 924.980469 1077.738281 920.863281 1056.324219 C 920.863281 1056.324219 918.042969 1041.5625 916.257812 1022.222656 C 914.46875 1002.886719 916.371094 978.289062 916.285156 978.617188 C 925.179688 945.707031 942.90625 901.640625 942.90625 901.640625 C 951.195312 881.472656 951.136719 858.835938 942.738281 838.710938 C 934.34375 818.585938 918.292969 802.617188 898.125 794.324219 C 888.140625 790.21875 877.441406 788.121094 866.644531 788.148438 Z M 866.796875 820.601562 C 866.039062 820.59375 865.28125 820.636719 864.53125 820.726562 C 863.03125 820.910156 861.558594 821.285156 860.144531 821.855469 L 785.730469 851.792969 C 778.925781 869.152344 766.628906 902.089844 757.539062 935.699219 C 757.539062 935.699219 757.539062 935.699219 757.535156 935.699219 C 757.515625 935.769531 757.503906 935.839844 757.480469 935.910156 L 814.558594 1022.183594 C 819.941406 1030.324219 830.484375 1032.472656 838.625 1027.085938 C 846.765625 1021.699219 848.914062 1011.152344 843.527344 1003.015625 L 781.507812 909.273438 C 779.160156 905.722656 778.53125 901.304688 779.796875 897.242188 C 781.0625 893.175781 784.089844 889.894531 788.035156 888.308594 L 873.105469 854.078125 C 882.15625 850.4375 886.378906 840.539062 882.738281 831.488281 C 880.414062 825.710938 875.230469 821.652344 869.066406 820.777344 C 869.066406 820.773438 869.066406 820.773438 869.066406 820.769531 C 868.308594 820.664062 867.550781 820.605469 866.796875 820.601562 "/>
<path fill-rule="nonzero" fill="rgb(0%, 0%, 0%)" fill-opacity="1" d="M 825.496094 1075.589844 C 817.246094 1076.523438 809.382812 1079.613281 802.703125 1084.546875 C 781.6875 1100.074219 777.238281 1129.695312 792.761719 1150.710938 L 858.191406 1239.277344 L 792.378906 1360.324219 C 786.382812 1371.347656 785.015625 1384.300781 788.570312 1396.335938 C 792.128906 1408.367188 800.320312 1418.496094 811.34375 1424.492188 C 834.296875 1436.96875 863.023438 1428.480469 875.503906 1405.523438 L 955.714844 1258.003906 C 964.496094 1241.855469 963.125 1222.082031 952.203125 1207.292969 L 868.867188 1094.488281 C 858.824219 1080.894531 842.292969 1073.6875 825.496094 1075.589844 "/>
<path fill-rule="nonzero" fill="rgb(0%, 0%, 0%)" fill-opacity="1" d="M 871.058594 806.742188 C 865.578125 805.960938 859.988281 806.640625 854.851562 808.707031 L 733.921875 857.359375 C 725.132812 860.898438 718.398438 868.199219 715.585938 877.246094 C 712.765625 886.292969 714.164062 896.125 719.394531 904.027344 L 802.738281 1030.003906 C 807.351562 1036.980469 814.550781 1041.835938 822.746094 1043.507812 C 830.945312 1045.175781 839.46875 1043.519531 846.445312 1038.90625 C 853.421875 1034.289062 858.28125 1027.09375 859.949219 1018.894531 C 861.621094 1010.695312 859.964844 1002.171875 855.347656 995.195312 L 793.328125 901.453125 L 878.398438 867.226562 C 894.558594 860.726562 902.386719 842.355469 895.886719 826.195312 C 891.679688 815.742188 882.214844 808.324219 871.058594 806.742188 "/>
<path fill-rule="nonzero" fill="rgb(0%, 0%, 0%)" fill-opacity="1" d="M 1430.980469 656.148438 C 1430.890625 656.148438 1430.828125 656.148438 1430.769531 656.152344 C 1430.488281 656.167969 1430.210938 656.222656 1429.949219 656.308594 L 1418.011719 660.28125 L 1417.871094 667.0625 L 1431.96875 662.375 C 1434.238281 661.621094 1434.75 660.609375 1433.988281 658.335938 C 1433.601562 657.167969 1432.808594 656.460938 1431.609375 656.214844 C 1431.398438 656.171875 1431.191406 656.148438 1430.980469 656.148438 Z M 1480.460938 692.597656 C 1473.398438 703.316406 1462.898438 711.835938 1449.851562 716.171875 L 1416.691406 727.191406 L 1415.828125 771.222656 C 1415.75 774.820312 1416.300781 778.410156 1417.441406 781.824219 L 1449.089844 876.652344 C 1452.648438 887.207031 1461.519531 895.097656 1472.410156 897.414062 C 1472.738281 891.839844 1472.390625 886.128906 1471.28125 880.375 C 1471.28125 880.367188 1471.28125 880.363281 1471.28125 880.355469 C 1471.28125 880.355469 1468.328125 864.941406 1466.480469 844.902344 C 1465.488281 834.226562 1465.550781 822.863281 1465.800781 814.027344 C 1465.929688 809.609375 1466.109375 805.839844 1466.25 803.191406 C 1466.320312 801.867188 1466.378906 800.820312 1466.421875 800.148438 C 1466.441406 799.8125 1466.460938 799.554688 1466.460938 799.480469 C 1466.460938 799.445312 1466.460938 799.414062 1466.449219 799.664062 C 1466.449219 799.691406 1466.460938 799.878906 1466.460938 799.898438 C 1466.460938 798.679688 1466.628906 797.46875 1466.941406 796.289062 C 1466.941406 796.277344 1466.949219 796.261719 1466.960938 796.242188 L 1466.949219 796.242188 C 1466.949219 796.242188 1466.960938 796.222656 1466.960938 796.21875 C 1470.339844 783.746094 1474.828125 770.035156 1479.191406 757.578125 Z M 1466.460938 800.023438 C 1466.449219 800.125 1466.429688 800.082031 1466.46875 800.824219 C 1466.488281 801.09375 1466.628906 802.214844 1466.628906 802.214844 C 1466.628906 802.214844 1469.648438 808.964844 1469.648438 808.964844 C 1469.648438 808.964844 1470.890625 808.863281 1471.050781 808.851562 C 1468.511719 806.558594 1466.878906 803.425781 1466.460938 800.023438 Z M 1492.101562 806.285156 C 1491.769531 806.621094 1491.421875 806.941406 1491.050781 807.246094 C 1491.238281 807.230469 1491.921875 807.175781 1492.390625 807.136719 Z M 1494.230469 812.648438 C 1494.199219 813.476562 1494.160156 813.941406 1494.140625 814.828125 C 1493.910156 823.039062 1493.910156 833.632812 1494.710938 842.296875 C 1496.429688 860.914062 1499.109375 874.992188 1499.121094 875.023438 C 1500.050781 879.859375 1500.589844 884.683594 1500.78125 889.46875 C 1509.609375 881.035156 1512.78125 868.265625 1508.921875 856.679688 L 1494.230469 812.648438 "/>
<path fill-rule="nonzero" fill="rgb(0%, 0%, 0%)" fill-opacity="1" d="M 1414.851562 515.183594 C 1414.851562 463.019531 1457.128906 420.738281 1509.289062 420.738281 C 1561.441406 420.738281 1603.730469 463.019531 1603.730469 515.183594 C 1603.730469 567.339844 1561.441406 609.621094 1509.289062 609.621094 C 1457.128906 609.621094 1414.851562 567.339844 1414.851562 515.183594 "/>
<path fill-rule="nonzero" fill="rgb(0%, 0%, 0%)" fill-opacity="1" d="M 1420.789062 856.40625 C 1418.429688 856.539062 1416.089844 856.84375 1413.769531 857.324219 C 1405.640625 859.015625 1398.101562 862.816406 1391.898438 868.347656 C 1386.980469 872.800781 1383.050781 878.242188 1380.359375 884.316406 C 1381.96875 883.917969 1383.589844 883.5625 1385.25 883.292969 C 1389.421875 882.613281 1393.570312 882.375 1397.640625 882.546875 C 1426.140625 883.734375 1451.078125 904.894531 1455.839844 934.078125 L 1471.210938 1028.28125 L 1500.109375 1060.675781 L 1480.25 1088.957031 C 1480.21875 1104.960938 1473.949219 1120.496094 1462.519531 1132.0625 L 1436.011719 1158.890625 C 1432.128906 1177.355469 1439.589844 1196.363281 1455 1207.253906 C 1465.261719 1214.464844 1477.980469 1217.300781 1490.339844 1215.140625 C 1502.699219 1212.976562 1513.691406 1205.992188 1520.898438 1195.722656 L 1599.101562 1084.351562 C 1611.730469 1066.367188 1610.308594 1042.0625 1595.679688 1025.664062 L 1458.699219 872.152344 C 1449.121094 861.40625 1435.160156 855.613281 1420.789062 856.40625 Z M 1394.898438 910.824219 C 1393.21875 910.84375 1391.53125 910.992188 1389.820312 911.273438 C 1385.359375 912 1381.269531 913.558594 1377.679688 915.765625 C 1379.578125 922.953125 1383.148438 929.59375 1388.101562 935.144531 L 1436.050781 988.886719 L 1427.859375 938.644531 C 1425.261719 922.691406 1412.039062 911.417969 1396.558594 910.84375 C 1396.011719 910.824219 1395.460938 910.816406 1394.898438 910.824219 "/>
<path fill-rule="nonzero" fill="rgb(0%, 0%, 0%)" fill-opacity="1" d="M 1430.980469 609.527344 C 1411.890625 609.601562 1393.410156 616.320312 1378.730469 628.53125 L 1416.539062 615.964844 C 1420.351562 614.699219 1424.289062 613.945312 1428.261719 613.710938 C 1432.230469 613.476562 1436.230469 613.761719 1440.160156 614.566406 C 1456.140625 617.851562 1469.199219 629.449219 1474.339844 644.925781 C 1482.25 668.726562 1469.179688 694.8125 1445.378906 702.722656 L 1353.460938 733.273438 L 1321.621094 848.175781 C 1320.519531 852.136719 1318.910156 855.828125 1316.898438 859.214844 C 1319.46875 886.804688 1323.710938 908.765625 1323.710938 908.765625 C 1327.828125 930.179688 1340.289062 949.078125 1358.351562 961.308594 C 1376.398438 973.535156 1398.578125 978.09375 1419.988281 973.972656 C 1464.578125 965.394531 1493.78125 922.292969 1485.199219 877.699219 C 1485.199219 877.699219 1482.378906 862.9375 1480.589844 843.601562 C 1478.808594 824.261719 1480.710938 799.675781 1480.621094 799.996094 L 1480.621094 799.992188 C 1489.519531 767.085938 1507.238281 723.019531 1507.238281 723.019531 C 1515.53125 702.851562 1515.46875 680.214844 1507.078125 660.089844 C 1498.679688 639.964844 1482.628906 623.996094 1462.460938 615.703125 C 1452.480469 611.601562 1441.78125 609.5 1430.980469 609.53125 Z M 1431.070312 641.976562 C 1430.691406 641.976562 1430.308594 641.984375 1429.941406 642.007812 C 1428.429688 642.09375 1426.929688 642.382812 1425.480469 642.863281 L 1352.449219 667.132812 C 1349.269531 675.035156 1343.53125 689.699219 1336.851562 709 C 1337.011719 708.914062 1337.179688 708.835938 1337.351562 708.761719 L 1436.441406 675.824219 C 1445.699219 672.746094 1450.519531 663.128906 1447.441406 653.867188 C 1445.480469 647.957031 1440.558594 643.585938 1434.460938 642.332031 C 1433.339844 642.101562 1432.199219 641.984375 1431.070312 641.976562 "/>
<path fill-rule="nonzero" fill="rgb(0%, 0%, 0%)" fill-opacity="1" d="M 1387.539062 897.28125 C 1375.148438 899.300781 1364.078125 906.160156 1356.75 916.34375 C 1349.421875 926.53125 1346.441406 939.210938 1348.460938 951.59375 L 1368.21875 1072.707031 L 1286.140625 1155.761719 C 1267.78125 1174.347656 1267.949219 1204.304688 1286.539062 1222.667969 C 1305.121094 1241.035156 1335.078125 1240.855469 1353.441406 1222.273438 L 1452.441406 1122.101562 C 1463.070312 1111.34375 1467.910156 1096.15625 1465.480469 1081.230469 L 1441.851562 936.359375 C 1439.828125 923.976562 1432.96875 912.902344 1422.789062 905.570312 C 1412.601562 898.242188 1399.921875 895.261719 1387.539062 897.28125 "/>
<path fill-rule="nonzero" fill="rgb(0%, 0%, 0%)" fill-opacity="1" d="M 1437.308594 628.449219 C 1431.890625 627.335938 1426.269531 627.667969 1421.011719 629.410156 L 1305.96875 667.648438 C 1295.988281 670.964844 1288.328125 679.027344 1285.519531 689.15625 L 1247.171875 827.546875 C 1242.519531 844.332031 1252.351562 861.710938 1269.140625 866.363281 C 1277.199219 868.597656 1285.820312 867.539062 1293.101562 863.417969 C 1300.378906 859.296875 1305.730469 852.453125 1307.960938 844.390625 L 1341.820312 722.210938 L 1440.910156 689.273438 C 1457.441406 683.78125 1466.390625 665.925781 1460.890625 649.398438 C 1457.339844 638.703125 1448.351562 630.71875 1437.308594 628.449219 "/>
<path fill-rule="nonzero" fill="rgb(0%, 0%, 0%)" fill-opacity="1" d="M 2011.789062 534.730469 C 2004.03125 534.382812 1996.421875 536.910156 1990.410156 541.828125 L 2014.351562 537.839844 C 2016.199219 537.53125 2017 536.890625 2017.070312 535.5 C 2015.339844 535.097656 2013.570312 534.839844 2011.789062 534.730469 Z M 2040.730469 588.164062 C 2035.480469 590.828125 2029.761719 592.746094 2023.679688 593.761719 L 1976.910156 601.554688 L 1974.011719 660.289062 C 1973.359375 673.355469 1980.851562 685.464844 1992.820312 690.726562 L 2042.960938 712.75 C 2042.851562 704.535156 2043.828125 697.238281 2044.351562 692.878906 C 2044.371094 692.710938 2044.371094 692.6875 2044.378906 692.53125 C 2043.660156 690.242188 2043.53125 687.808594 2044.011719 685.457031 C 2049.578125 674.75 2056.328125 663.230469 2062.839844 652.582031 L 2038.089844 641.707031 Z M 2089.179688 664.148438 C 2083.710938 673.023438 2078.011719 682.578125 2073.039062 691.636719 C 2073 691.78125 2072.941406 691.953125 2072.921875 692.128906 C 2072.820312 693.515625 2072.671875 694.785156 2072.5 696.203125 C 2071.828125 701.871094 2070.929688 709.878906 2071.46875 716.226562 C 2071.75 719.59375 2072.109375 722.75 2072.488281 725.722656 L 2093.179688 734.808594 C 2109.121094 741.8125 2127.730469 734.5625 2134.738281 718.613281 C 2141.738281 702.667969 2134.5 684.058594 2118.550781 677.050781 Z M 2044.359375 689.644531 C 2044.320312 689.648438 2044.289062 689.6875 2044.269531 689.773438 C 2044.25 689.859375 2044.539062 690.671875 2044.558594 690.878906 C 2044.578125 690.65625 2044.640625 690.179688 2044.648438 690.058594 C 2044.660156 689.910156 2044.480469 689.628906 2044.359375 689.644531 Z M 2068.851562 698.730469 C 2067.21875 700.417969 2065.210938 701.675781 2062.980469 702.394531 C 2067.390625 701 2068.410156 699.519531 2068.851562 698.730469 "/>
<path fill-rule="nonzero" fill="rgb(0%, 0%, 0%)" fill-opacity="1" d="M 2086.128906 465.429688 C 2086.128906 413.269531 2128.410156 370.988281 2180.570312 370.988281 C 2232.730469 370.988281 2275.011719 413.269531 2275.011719 465.429688 C 2275.011719 517.585938 2232.730469 559.867188 2180.570312 559.867188 C 2128.410156 559.867188 2086.128906 517.585938 2086.128906 465.429688 "/>
<path fill-rule="nonzero" fill="rgb(0%, 0%, 0%)" fill-opacity="1" d="M 2016.738281 735.910156 C 2003.328125 734.980469 1990.171875 739.800781 1980.519531 749.160156 C 1988.371094 749.53125 1996.101562 751.390625 2003.28125 754.6875 C 2003.28125 754.691406 2003.28125 754.691406 2003.28125 754.691406 L 2147.128906 820.726562 C 2157.449219 825.464844 2166.128906 832.925781 2172.378906 842.152344 L 2195.21875 843.820312 L 2293.480469 917.9375 C 2314.339844 933.671875 2344 929.515625 2359.738281 908.65625 C 2367.289062 898.640625 2370.558594 886.027344 2368.820312 873.601562 C 2367.078125 861.175781 2360.480469 849.949219 2350.460938 842.390625 L 2241.058594 759.878906 C 2233.789062 754.398438 2225.101562 751.128906 2216.019531 750.464844 Z M 1976.71875 777.441406 C 1976 777.460938 1975.269531 777.503906 1974.550781 777.574219 C 1971.628906 777.847656 1968.808594 778.496094 1966.140625 779.484375 C 1966.128906 779.539062 1966.121094 779.59375 1966.109375 779.648438 C 1964.210938 805.707031 1983.789062 828.375 2009.851562 830.28125 L 2117.070312 838.113281 L 1991.460938 780.449219 L 1991.460938 780.453125 C 1986.828125 778.328125 1981.789062 777.300781 1976.71875 777.441406 "/>
<path fill-rule="nonzero" fill="rgb(0%, 0%, 0%)" fill-opacity="1" d="M 2035.128906 493.539062 C 2034.621094 493.550781 2034.109375 493.550781 2033.589844 493.558594 C 2046.53125 499.828125 2056.398438 512.039062 2058.921875 527.171875 C 2063.050781 551.910156 2046.078125 575.660156 2021.351562 579.785156 L 1921.410156 596.4375 C 1917.769531 602.867188 1914.160156 609.453125 1910.691406 616.113281 C 1885.890625 663.796875 1890.949219 701.265625 1893.480469 731.253906 C 1896.019531 761.238281 1901.769531 785.359375 1901.769531 785.359375 C 1912.179688 829.5625 1956.441406 856.964844 2000.640625 846.5625 C 2021.871094 841.566406 2040.25 828.34375 2051.71875 809.800781 C 2063.199219 791.257812 2066.839844 768.914062 2061.839844 747.6875 C 2061.839844 747.6875 2058.769531 734.304688 2057.351562 717.421875 C 2055.921875 700.535156 2061.898438 681.765625 2056.578125 692 C 2072.308594 661.757812 2099.050781 622.5 2099.050781 622.5 C 2111.46875 604.574219 2116.25 582.449219 2112.351562 560.992188 C 2108.460938 539.535156 2096.191406 520.507812 2078.269531 508.089844 C 2065.539062 499.28125 2050.589844 494.238281 2035.128906 493.550781 Z M 2014.53125 517.316406 C 2013.371094 517.28125 2012.179688 517.359375 2010.980469 517.558594 L 1966.960938 524.894531 C 1965.878906 526.191406 1964.851562 527.515625 1963.859375 528.871094 C 1963.859375 528.871094 1953.570312 543.570312 1940.46875 564.519531 L 2016.679688 551.820312 C 2026.308594 550.214844 2032.570312 541.460938 2030.960938 531.835938 C 2029.558594 523.410156 2022.679688 517.574219 2014.539062 517.316406 "/>
<path fill-rule="nonzero" fill="rgb(0%, 0%, 0%)" fill-opacity="1" d="M 1973.230469 763.460938 C 1956.398438 765.035156 1941.691406 775.46875 1934.640625 790.828125 C 1929.398438 802.230469 1928.910156 815.246094 1933.269531 827.015625 C 1937.628906 838.78125 1946.488281 848.332031 1957.890625 853.566406 L 2082.96875 910.984375 L 2111.578125 998.148438 C 2115.5 1010.070312 2123.988281 1019.949219 2135.179688 1025.609375 C 2146.378906 1031.273438 2159.371094 1032.257812 2171.289062 1028.34375 C 2183.210938 1024.429688 2193.089844 1015.9375 2198.761719 1004.742188 C 2204.421875 993.542969 2205.398438 980.554688 2201.488281 968.632812 L 2166.429688 861.847656 C 2162.320312 849.335938 2153.179688 839.101562 2141.21875 833.605469 L 1997.371094 767.570312 C 1989.820312 764.105469 1981.5 762.6875 1973.230469 763.460938 "/>
<path fill-rule="nonzero" fill="rgb(0%, 0%, 0%)" fill-opacity="1" d="M 2008.648438 503.578125 L 1864.308594 527.632812 C 1852.238281 529.644531 1842.421875 538.453125 1839.121094 550.238281 L 1810.691406 651.753906 C 1808.441406 659.808594 1809.480469 668.429688 1813.578125 675.722656 C 1817.679688 683.011719 1824.511719 688.375 1832.558594 690.628906 C 1840.621094 692.886719 1849.238281 691.847656 1856.53125 687.746094 C 1863.820312 683.644531 1869.191406 676.816406 1871.441406 668.757812 L 1894.460938 586.558594 L 2019.019531 565.800781 C 2027.269531 564.425781 2034.628906 559.828125 2039.5 553.019531 C 2044.359375 546.214844 2046.320312 537.753906 2044.941406 529.503906 C 2042.078125 512.320312 2025.828125 500.710938 2008.648438 503.578125 "/>
<path fill-rule="nonzero" fill="rgb(0%, 0%, 0%)" fill-opacity="1" d="M 2581 541.136719 C 2567.441406 541.789062 2555.820312 551.050781 2552.160156 564.125 L 2649.601562 547.882812 L 2585.679688 541.269531 C 2584.128906 541.109375 2582.558594 541.066406 2581 541.136719 Z M 2610.160156 583.199219 L 2550.011719 593.222656 L 2548.460938 630.691406 C 2550.359375 629.089844 2552.648438 628.019531 2555.101562 627.582031 L 2589.621094 621.832031 C 2589.011719 618.445312 2589.660156 614.953125 2591.441406 612.007812 C 2599.289062 599.460938 2605.839844 589.589844 2610.160156 583.199219 Z M 2677.039062 586.492188 C 2676.808594 586.484375 2676.550781 586.5 2676.25 586.546875 L 2637.800781 592.957031 C 2637.691406 593.117188 2633.929688 598.914062 2633.03125 600.222656 L 2677.300781 592.847656 C 2678.179688 592.699219 2678.691406 592.390625 2679.089844 592.011719 C 2679.160156 591.945312 2679.230469 591.878906 2679.28125 591.816406 C 2679.25 591.851562 2679.339844 591.746094 2679.53125 591.460938 C 2679.609375 591.324219 2679.601562 591.339844 2679.648438 591.257812 C 2679.671875 591.214844 2679.699219 591.171875 2679.71875 591.128906 C 2679.941406 590.625 2680.070312 590.058594 2679.921875 589.171875 C 2679.921875 589.113281 2679.890625 588.992188 2679.839844 588.785156 L 2679.839844 588.800781 C 2679.96875 589.296875 2679.96875 589.261719 2679.800781 588.679688 C 2679.800781 588.675781 2679.800781 588.671875 2679.800781 588.671875 C 2679.710938 588.382812 2679.679688 588.316406 2679.738281 588.460938 C 2679.820312 588.691406 2679.808594 588.65625 2679.679688 588.34375 C 2679.679688 588.339844 2679.679688 588.335938 2679.679688 588.335938 C 2679.621094 588.160156 2679.589844 588.109375 2679.621094 588.164062 C 2679.648438 588.226562 2679.621094 588.191406 2679.558594 588.054688 C 2679.558594 588.054688 2679.558594 588.050781 2679.558594 588.050781 C 2679.519531 587.972656 2679.488281 587.921875 2679.46875 587.898438 C 2679.398438 587.777344 2679.378906 587.746094 2679.421875 587.804688 C 2679.421875 587.804688 2679.421875 587.804688 2679.421875 587.800781 C 2679.449219 587.859375 2679.421875 587.8125 2679.320312 587.671875 C 2679.320312 587.667969 2679.320312 587.667969 2679.320312 587.664062 C 2679.128906 587.398438 2679.148438 587.429688 2679.269531 587.582031 C 2679.351562 587.683594 2679.308594 587.636719 2679.140625 587.449219 L 2679.140625 587.453125 C 2679.011719 587.300781 2678.980469 587.269531 2678.929688 587.214844 C 2678.929688 587.214844 2678.910156 587.195312 2678.910156 587.195312 C 2678.910156 587.191406 2678.871094 587.164062 2678.851562 587.152344 C 2678.789062 587.105469 2678.78125 587.101562 2678.640625 587.007812 C 2678.640625 587.003906 2678.640625 587.003906 2678.640625 587.003906 C 2678.441406 586.867188 2678.390625 586.835938 2678.5 586.902344 C 2678.5 586.902344 2678.5 586.898438 2678.5 586.898438 C 2678.78125 587.0625 2678.75 587.042969 2678.410156 586.859375 C 2678.269531 586.785156 2678.230469 586.765625 2678.269531 586.785156 C 2678.308594 586.800781 2678.269531 586.789062 2678.179688 586.746094 C 2678.140625 586.726562 2678.089844 586.707031 2678.03125 586.6875 C 2677.929688 586.644531 2677.890625 586.640625 2677.929688 586.652344 C 2677.988281 586.671875 2677.949219 586.648438 2677.769531 586.605469 C 2677.441406 586.519531 2677.378906 586.511719 2677.660156 586.574219 C 2677.800781 586.605469 2677.730469 586.585938 2677.46875 586.546875 C 2677.320312 586.523438 2677.308594 586.519531 2677.238281 586.507812 C 2677.171875 586.503906 2677.078125 586.496094 2677.058594 586.496094 Z M 2678.988281 587.269531 C 2679.03125 587.316406 2679.019531 587.304688 2679.089844 587.382812 C 2679.089844 587.378906 2679.089844 587.375 2679.089844 587.375 C 2679.03125 587.304688 2679.019531 587.300781 2678.988281 587.269531 Z M 2691.898438 598.449219 L 2677.75 599.171875 C 2677.75 599.171875 2677.96875 601.074219 2677.96875 601.074219 Z M 2610.320312 661.488281 L 2593.519531 664.285156 C 2591.058594 668.726562 2588.570312 673.160156 2586.230469 677.660156 C 2575.789062 697.738281 2571.101562 715.386719 2569.289062 731.546875 C 2571.421875 732.121094 2573.601562 732.476562 2575.800781 732.597656 C 2584.160156 732.945312 2592.308594 729.957031 2598.46875 724.289062 C 2604.628906 718.625 2608.28125 710.746094 2608.621094 702.390625 L 2610.320312 661.488281 "/>
<path fill-rule="nonzero" fill="rgb(0%, 0%, 0%)" fill-opacity="1" d="M 2749.109375 520.433594 C 2749.109375 468.28125 2791.390625 425.988281 2843.550781 425.988281 C 2895.710938 425.988281 2937.988281 468.28125 2937.988281 520.433594 C 2937.988281 572.589844 2895.710938 614.871094 2843.550781 614.871094 C 2791.390625 614.871094 2749.109375 572.589844 2749.109375 520.433594 "/>
<path fill-rule="nonzero" fill="rgb(0%, 0%, 0%)" fill-opacity="1" d="M 2674.519531 790.117188 C 2672.449219 790.03125 2670.390625 790.078125 2668.328125 790.257812 C 2657.230469 791.28125 2646.851562 796.1875 2639.011719 804.113281 C 2640.320312 804.078125 2641.628906 804.082031 2642.941406 804.132812 C 2650.980469 804.4375 2658.910156 806.320312 2666.261719 809.695312 L 2810.109375 875.730469 C 2827.109375 883.539062 2839.648438 898.6875 2844.140625 916.847656 L 2876.148438 1046.257812 L 2886.601562 1062.859375 C 2893.289062 1073.480469 2903.921875 1081.007812 2916.148438 1083.789062 C 2928.390625 1086.570312 2941.230469 1084.378906 2951.851562 1077.691406 C 2973.960938 1063.769531 2980.589844 1034.558594 2966.671875 1012.449219 L 2893.671875 896.488281 C 2888.820312 888.78125 2881.851562 882.640625 2873.601562 878.800781 L 2692.449219 794.492188 C 2686.820312 791.871094 2680.71875 790.386719 2674.519531 790.117188 Z M 2639.699219 832.449219 C 2638.96875 832.46875 2638.25 832.511719 2637.519531 832.578125 C 2633.191406 832.984375 2629.058594 834.230469 2625.328125 836.167969 C 2624.820312 854.96875 2635.5 872.289062 2652.53125 880.277344 L 2821.03125 958.703125 L 2828.058594 969.867188 L 2816.628906 923.652344 C 2814.199219 913.847656 2807.460938 905.703125 2798.28125 901.488281 L 2654.429688 835.453125 C 2649.808594 833.332031 2644.769531 832.308594 2639.699219 832.449219 "/>
<path fill-rule="nonzero" fill="rgb(0%, 0%, 0%)" fill-opacity="1" d="M 2698.109375 548.550781 C 2697.601562 548.550781 2697.089844 548.558594 2696.578125 548.570312 C 2698.191406 549.347656 2699.75 550.21875 2701.25 551.175781 C 2701.269531 551.1875 2701.289062 551.203125 2701.308594 551.214844 C 2703.539062 552.636719 2705.640625 554.242188 2707.589844 556.019531 C 2707.640625 556.0625 2707.691406 556.109375 2707.738281 556.152344 C 2709.011719 557.316406 2710.210938 558.550781 2711.339844 559.851562 C 2711.410156 559.933594 2711.480469 560.015625 2711.558594 560.097656 C 2712.070312 560.691406 2712.558594 561.296875 2713.039062 561.917969 C 2713.089844 561.980469 2713.140625 562.042969 2713.191406 562.105469 C 2713.710938 562.789062 2714.21875 563.492188 2714.710938 564.207031 C 2714.738281 564.257812 2714.769531 564.308594 2714.808594 564.359375 C 2715.230469 564.992188 2715.640625 565.640625 2716.03125 566.292969 C 2716.128906 566.445312 2716.21875 566.597656 2716.308594 566.75 C 2717.148438 568.183594 2717.910156 569.667969 2718.601562 571.199219 C 2718.679688 571.378906 2718.75 571.558594 2718.828125 571.734375 C 2719.109375 572.378906 2719.371094 573.03125 2719.621094 573.691406 C 2719.671875 573.835938 2719.730469 573.972656 2719.78125 574.117188 C 2720.070312 574.898438 2720.328125 575.691406 2720.570312 576.496094 C 2720.628906 576.671875 2720.679688 576.855469 2720.730469 577.03125 C 2720.910156 577.679688 2721.089844 578.335938 2721.25 578.996094 C 2721.300781 579.214844 2721.351562 579.433594 2721.398438 579.652344 C 2721.589844 580.484375 2721.761719 581.324219 2721.910156 582.179688 C 2722.039062 582.949219 2722.140625 583.722656 2722.230469 584.492188 C 2722.398438 586.007812 2722.5 587.511719 2722.519531 589.007812 C 2722.519531 589.035156 2722.519531 589.066406 2722.519531 589.09375 C 2722.519531 589.855469 2722.519531 590.617188 2722.488281 591.371094 C 2722.460938 592.128906 2722.410156 592.882812 2722.339844 593.632812 C 2722.210938 595.132812 2722 596.613281 2721.71875 598.074219 C 2720.878906 602.46875 2719.410156 606.679688 2717.378906 610.589844 C 2716.699219 611.894531 2715.96875 613.164062 2715.171875 614.394531 C 2714.378906 615.628906 2713.519531 616.820312 2712.621094 617.972656 C 2711.261719 619.699219 2709.769531 621.335938 2708.171875 622.855469 C 2707.109375 623.867188 2705.988281 624.832031 2704.828125 625.742188 C 2701.929688 628.019531 2698.738281 629.960938 2695.300781 631.492188 C 2692.550781 632.714844 2689.648438 633.679688 2686.621094 634.347656 C 2685.859375 634.511719 2685.101562 634.660156 2684.320312 634.789062 L 2584.378906 651.445312 C 2580.738281 657.875 2577.128906 664.460938 2573.660156 671.117188 C 2548.859375 718.804688 2553.929688 756.273438 2556.460938 786.257812 C 2558.988281 816.242188 2564.75 840.367188 2564.75 840.367188 C 2575.148438 884.570312 2619.421875 911.96875 2663.621094 901.566406 C 2684.851562 896.570312 2703.21875 883.347656 2714.699219 864.804688 C 2726.179688 846.261719 2729.820312 823.921875 2724.820312 802.691406 C 2724.820312 802.691406 2721.75 789.308594 2720.320312 772.425781 C 2718.898438 755.539062 2724.878906 736.773438 2719.558594 747.007812 C 2735.289062 716.761719 2762.019531 677.507812 2762.019531 677.507812 C 2774.441406 659.578125 2779.230469 637.453125 2775.328125 615.996094 C 2771.429688 594.542969 2759.171875 575.511719 2741.238281 563.097656 C 2728.519531 554.285156 2713.558594 549.242188 2698.101562 548.550781 Z M 2677.511719 572.324219 C 2676.351562 572.285156 2675.160156 572.363281 2673.949219 572.566406 L 2629.929688 579.902344 C 2628.859375 581.195312 2627.828125 582.523438 2626.839844 583.878906 C 2626.839844 583.878906 2616.550781 598.578125 2603.441406 619.527344 L 2679.648438 606.824219 C 2683.261719 606.222656 2686.398438 604.617188 2688.828125 602.335938 C 2689.230469 601.953125 2689.621094 601.554688 2689.980469 601.140625 C 2690.558594 600.46875 2691.078125 599.746094 2691.550781 598.992188 C 2691.671875 598.8125 2691.789062 598.636719 2691.898438 598.449219 C 2692.179688 597.96875 2692.429688 597.476562 2692.660156 596.972656 C 2694.03125 593.9375 2694.539062 590.449219 2693.929688 586.839844 C 2693.839844 586.277344 2693.71875 585.726562 2693.578125 585.1875 C 2693.519531 584.992188 2693.460938 584.804688 2693.398438 584.613281 C 2693.300781 584.269531 2693.191406 583.925781 2693.070312 583.59375 C 2693 583.386719 2692.910156 583.1875 2692.828125 582.984375 C 2692.710938 582.679688 2692.578125 582.378906 2692.441406 582.085938 C 2692.339844 581.878906 2692.238281 581.679688 2692.140625 581.480469 C 2691.988281 581.195312 2691.828125 580.914062 2691.671875 580.640625 C 2691.558594 580.457031 2691.449219 580.273438 2691.328125 580.09375 C 2691.148438 579.820312 2690.96875 579.558594 2690.769531 579.296875 C 2690.648438 579.125 2690.53125 578.953125 2690.398438 578.785156 C 2690.179688 578.515625 2689.960938 578.257812 2689.730469 578.003906 C 2689.609375 577.871094 2689.5 577.734375 2689.378906 577.605469 C 2689.019531 577.226562 2688.640625 576.863281 2688.25 576.519531 C 2687.859375 576.175781 2687.449219 575.851562 2687.019531 575.546875 C 2686.890625 575.453125 2686.761719 575.371094 2686.621094 575.28125 C 2686.328125 575.082031 2686.03125 574.882812 2685.71875 574.699219 C 2685.539062 574.597656 2685.371094 574.503906 2685.191406 574.40625 C 2684.898438 574.253906 2684.621094 574.101562 2684.328125 573.964844 C 2684.140625 573.875 2683.949219 573.792969 2683.761719 573.710938 C 2683.46875 573.585938 2683.171875 573.472656 2682.878906 573.363281 C 2682.671875 573.289062 2682.460938 573.214844 2682.25 573.148438 C 2681.949219 573.050781 2681.640625 572.96875 2681.339844 572.886719 C 2681.128906 572.835938 2680.929688 572.777344 2680.71875 572.730469 C 2680.371094 572.652344 2680.011719 572.59375 2679.660156 572.539062 C 2679.480469 572.511719 2679.308594 572.476562 2679.140625 572.453125 C 2678.601562 572.390625 2678.058594 572.339844 2677.511719 572.324219 "/>
<path fill-rule="nonzero" fill="rgb(0%, 0%, 0%)" fill-opacity="1" d="M 2636.199219 818.46875 C 2619.371094 820.039062 2604.660156 830.472656 2597.609375 845.835938 C 2592.378906 857.238281 2591.890625 870.257812 2596.25 882.019531 C 2600.609375 893.785156 2609.46875 903.339844 2620.871094 908.570312 L 2744 965.09375 L 2771.601562 1076.679688 C 2777.871094 1102.042969 2803.519531 1117.519531 2828.890625 1111.246094 C 2854.25 1104.976562 2869.730469 1079.328125 2863.449219 1053.964844 L 2830.378906 920.25 C 2826.921875 906.269531 2817.289062 894.621094 2804.199219 888.613281 L 2660.351562 822.574219 C 2652.800781 819.109375 2644.46875 817.695312 2636.199219 818.46875 "/>
<path fill-rule="nonzero" fill="rgb(0%, 0%, 0%)" fill-opacity="1" d="M 2671.628906 558.582031 L 2527.289062 582.640625 C 2515.21875 584.652344 2505.398438 593.460938 2502.101562 605.242188 L 2473.671875 706.757812 C 2471.421875 714.8125 2472.449219 723.433594 2476.558594 730.726562 C 2480.660156 738.015625 2487.488281 743.382812 2495.539062 745.636719 C 2503.601562 747.890625 2512.21875 746.855469 2519.511719 742.753906 C 2526.800781 738.652344 2532.171875 731.820312 2534.421875 723.765625 L 2557.441406 641.566406 L 2681.988281 620.808594 C 2690.25 619.433594 2697.609375 614.835938 2702.480469 608.027344 C 2707.339844 601.21875 2709.300781 592.761719 2707.921875 584.507812 C 2705.058594 567.328125 2688.808594 555.722656 2671.628906 558.582031 "/>
<path fill-rule="nonzero" fill="rgb(0%, 0%, 0%)" fill-opacity="1" d="M 3347.101562 811.105469 C 3346.980469 811.105469 3346.828125 811.109375 3346.679688 811.128906 C 3346.390625 811.164062 3346.128906 811.230469 3345.878906 811.335938 L 3334.101562 816.074219 L 3333.960938 823.019531 L 3348.261719 817.269531 C 3350.480469 816.375 3350.921875 815.335938 3350.03125 813.113281 C 3350.03125 813.109375 3350.03125 813.109375 3350.03125 813.105469 C 3349.570312 811.964844 3348.738281 811.316406 3347.511719 811.140625 C 3347.511719 811.140625 3347.511719 811.140625 3347.511719 811.136719 C 3347.371094 811.117188 3347.238281 811.109375 3347.109375 811.105469 Z M 3396.570312 847.714844 C 3390.128906 857.363281 3380.878906 865.242188 3369.398438 869.859375 L 3332.75 884.609375 L 3332.160156 914.6875 L 3359.421875 955.890625 C 3364.128906 963.015625 3367.089844 970.820312 3368.421875 978.789062 L 3382.121094 993.691406 C 3381.621094 984.933594 3381.691406 976.128906 3381.890625 968.976562 C 3382.019531 964.558594 3382.199219 960.792969 3382.339844 958.144531 C 3382.410156 956.824219 3382.480469 955.773438 3382.511719 955.101562 C 3382.53125 954.765625 3382.558594 954.507812 3382.558594 954.433594 L 3382.558594 954.609375 C 3382.558594 954.734375 3382.511719 954.683594 3382.578125 955.761719 C 3382.601562 956.03125 3382.730469 957.171875 3382.730469 957.171875 C 3382.730469 957.171875 3383.058594 957.882812 3383.160156 958.082031 C 3382.570312 955.871094 3382.519531 953.546875 3383.019531 951.3125 C 3383.03125 951.304688 3383.050781 951.261719 3383.050781 951.253906 C 3386.429688 938.765625 3390.929688 925.023438 3395.289062 912.542969 Z M 3416.671875 938.070312 C 3414.53125 944.679688 3412.46875 951.269531 3410.789062 957.40625 C 3410.75 958.035156 3410.710938 958.703125 3410.660156 959.675781 C 3410.53125 962.152344 3410.359375 965.675781 3410.238281 969.78125 C 3410.011719 977.992188 3410.011719 988.589844 3410.808594 997.253906 C 3411.851562 1008.515625 3413.191406 1017.644531 3414.128906 1023.480469 C 3425.269531 1027.664062 3437.808594 1025.230469 3446.570312 1017.179688 C 3459.390625 1005.390625 3460.230469 985.441406 3448.441406 972.617188 Z M 3410.398438 958.660156 C 3409.480469 959.933594 3408.351562 961.046875 3407.050781 961.949219 C 3407.410156 961.90625 3409.191406 961.699219 3409.191406 961.699219 C 3409.191406 961.699219 3410.238281 959.214844 3410.398438 958.660156 Z M 3385.179688 962.363281 C 3385.558594 963.164062 3386.128906 964.359375 3386.128906 964.359375 C 3386.128906 964.359375 3386.609375 964.304688 3386.640625 964.300781 C 3386.101562 963.695312 3385.609375 963.046875 3385.179688 962.363281 "/>
<path fill-rule="nonzero" fill="rgb(0%, 0%, 0%)" fill-opacity="1" d="M 3365.230469 701.296875 C 3365.230469 649.140625 3407.511719 606.859375 3459.671875 606.859375 C 3511.828125 606.859375 3554.109375 649.140625 3554.109375 701.296875 C 3554.109375 753.457031 3511.828125 795.738281 3459.671875 795.738281 C 3407.511719 795.738281 3365.230469 753.457031 3365.230469 701.296875 "/>
<path fill-rule="nonzero" fill="rgb(0%, 0%, 0%)" fill-opacity="1" d="M 3348.699219 1012.328125 C 3345.308594 1018.078125 3340.609375 1023.15625 3334.710938 1027.058594 C 3323.980469 1034.15625 3311.230469 1036.070312 3299.480469 1033.433594 C 3298.328125 1035.304688 3297.308594 1037.253906 3296.429688 1039.265625 C 3299.03125 1038.617188 3301.671875 1038.140625 3304.351562 1037.839844 C 3307.070312 1037.53125 3309.800781 1037.40625 3312.488281 1037.460938 C 3331.398438 1037.847656 3349.300781 1046.957031 3360.699219 1062.398438 L 3444.039062 1175.207031 C 3458.21875 1194.394531 3460 1220.148438 3448.609375 1241.109375 L 3368.390625 1388.628906 C 3366.320312 1392.4375 3363.890625 1395.941406 3361.171875 1399.121094 C 3379.539062 1402.273438 3398.058594 1394.34375 3408.449219 1378.863281 L 3466.460938 1291.910156 L 3505.140625 1233.929688 C 3516.851562 1216.375 3515.519531 1193.1875 3501.890625 1177.085938 L 3375.609375 1028.023438 C 3368.671875 1019.90625 3359.191406 1014.375 3348.699219 1012.328125 Z M 3311.941406 1065.800781 C 3310.480469 1065.769531 3309.011719 1065.835938 3307.539062 1066.003906 C 3302.679688 1066.554688 3298.03125 1068.179688 3293.890625 1070.730469 C 3295.660156 1077.511719 3298.910156 1083.816406 3303.421875 1089.1875 L 3406.660156 1211.058594 L 3387.761719 1239.394531 L 3329.738281 1326.355469 C 3317.511719 1344.808594 3319.710938 1369.273438 3335.039062 1385.246094 C 3338.398438 1382.554688 3341.300781 1379.144531 3343.5 1375.089844 L 3423.710938 1227.570312 C 3429.878906 1216.230469 3428.929688 1202.433594 3421.261719 1192.050781 L 3337.921875 1079.242188 C 3331.75 1070.894531 3322.140625 1066 3311.941406 1065.796875 "/>
<path fill-rule="nonzero" fill="rgb(0%, 0%, 0%)" fill-opacity="1" d="M 3347.089844 764.484375 C 3325.699219 764.59375 3305.191406 773.035156 3289.921875 788.023438 L 3330 771.890625 C 3333.730469 770.394531 3337.609375 769.398438 3341.558594 768.917969 C 3345.511719 768.4375 3349.53125 768.480469 3353.5 769.042969 L 3353.5 769.039062 C 3369.648438 771.332031 3383.390625 782.105469 3389.480469 797.234375 C 3398.839844 820.503906 3387.398438 847.351562 3364.128906 856.710938 L 3295.179688 884.453125 L 3347.609375 963.710938 C 3361.449219 984.628906 3355.628906 1013.222656 3334.710938 1027.058594 C 3313.789062 1040.894531 3285.199219 1035.070312 3271.359375 1014.15625 L 3230.980469 953.117188 C 3229.289062 975.933594 3231.308594 995.835938 3232.960938 1013.691406 C 3235.53125 1041.511719 3239.820312 1063.726562 3239.820312 1063.726562 C 3248.398438 1108.316406 3291.5 1137.511719 3336.089844 1128.933594 C 3357.511719 1124.8125 3376.410156 1112.355469 3388.640625 1094.304688 C 3400.871094 1076.246094 3405.429688 1054.074219 3401.308594 1032.660156 C 3401.308594 1032.660156 3398.488281 1017.894531 3396.699219 998.558594 C 3394.910156 979.21875 3396.820312 954.628906 3396.730469 954.953125 C 3405.628906 922.046875 3423.351562 877.976562 3423.351562 877.976562 C 3440.621094 835.976562 3420.570312 787.933594 3378.570312 770.664062 C 3368.589844 766.558594 3357.890625 764.457031 3347.089844 764.484375 Z M 3347.238281 796.933594 C 3346.480469 796.925781 3345.730469 796.96875 3344.980469 797.058594 C 3343.480469 797.242188 3342.011719 797.617188 3340.589844 798.1875 L 3266.171875 828.128906 C 3259.371094 845.488281 3247.070312 878.425781 3237.980469 912.035156 C 3237.960938 912.105469 3237.949219 912.175781 3237.929688 912.25 L 3295.011719 998.515625 C 3300.390625 1006.65625 3310.941406 1008.804688 3319.078125 1003.417969 C 3327.21875 998.03125 3329.359375 987.488281 3323.980469 979.347656 L 3261.960938 885.609375 C 3259.609375 882.058594 3258.980469 877.640625 3260.25 873.578125 C 3261.511719 869.515625 3264.539062 866.234375 3268.488281 864.644531 L 3353.558594 830.414062 C 3362.609375 826.773438 3366.828125 816.875 3363.191406 807.820312 C 3360.859375 802.039062 3355.679688 797.984375 3349.511719 797.109375 C 3349.511719 797.105469 3349.511719 797.105469 3349.511719 797.105469 C 3348.761719 796.996094 3348 796.941406 3347.238281 796.933594 "/>
<path fill-rule="nonzero" fill="rgb(0%, 0%, 0%)" fill-opacity="1" d="M 3305.941406 1051.921875 C 3297.691406 1052.855469 3289.828125 1055.945312 3283.148438 1060.878906 C 3262.128906 1076.40625 3257.679688 1106.027344 3273.210938 1127.042969 L 3338.640625 1215.617188 L 3272.820312 1336.660156 C 3260.339844 1359.617188 3268.828125 1388.34375 3291.789062 1400.824219 C 3314.738281 1413.304688 3343.46875 1404.8125 3355.949219 1381.859375 L 3436.160156 1234.339844 C 3444.941406 1218.1875 3443.570312 1198.414062 3432.648438 1183.628906 L 3349.308594 1070.820312 C 3339.269531 1057.226562 3322.738281 1050.023438 3305.941406 1051.921875 "/>
<path fill-rule="nonzero" fill="rgb(0%, 0%, 0%)" fill-opacity="1" d="M 3351.5 783.074219 C 3346.019531 782.292969 3340.429688 782.972656 3335.300781 785.039062 L 3214.371094 833.699219 C 3205.578125 837.234375 3198.839844 844.535156 3196.03125 853.582031 C 3193.210938 862.628906 3194.609375 872.460938 3199.828125 880.363281 L 3283.179688 1006.335938 C 3287.800781 1013.3125 3295 1018.167969 3303.191406 1019.839844 C 3311.390625 1021.507812 3319.910156 1019.855469 3326.890625 1015.238281 C 3333.871094 1010.621094 3338.71875 1003.425781 3340.390625 995.226562 C 3342.058594 987.03125 3340.410156 978.507812 3335.789062 971.53125 L 3273.769531 877.789062 L 3358.839844 843.5625 C 3366.601562 840.441406 3372.808594 834.363281 3376.089844 826.667969 C 3379.371094 818.972656 3379.449219 810.289062 3376.328125 802.527344 C 3372.128906 792.074219 3362.660156 784.65625 3351.5 783.074219 "/>
<path fill-rule="nonzero" fill="rgb(0%, 0%, 0%)" fill-opacity="1" d="M 387.570312 711.785156 C 392.859375 720.007812 394.160156 730.429688 390.695312 739.828125 C 394.167969 730.425781 392.871094 720.007812 387.582031 711.789062 C 387.578125 711.789062 387.574219 711.789062 387.574219 711.789062 Z M 364.28125 783.554688 L 343.988281 816.199219 L 343.988281 816.203125 Z M 422.835938 869.28125 C 422.65625 869.925781 422.460938 870.585938 422.289062 871.21875 C 422.285156 871.292969 422.277344 871.332031 422.273438 871.414062 C 422.234375 872.097656 422.175781 873.089844 422.105469 874.347656 C 421.972656 876.867188 421.800781 880.460938 421.679688 884.644531 C 421.445312 893.011719 421.429688 903.800781 422.277344 912.964844 C 424.03125 931.945312 426.785156 946.367188 426.789062 946.382812 L 426.789062 946.390625 C 429.089844 958.375 428.890625 970.625 426.300781 982.394531 C 437.058594 990.375 451.683594 990.6875 462.773438 983.179688 C 469.671875 978.445312 474.402344 971.164062 475.929688 962.941406 C 477.460938 954.714844 475.65625 946.222656 470.921875 939.324219 Z M 422.085938 871.859375 C 421.167969 872.789062 420.011719 873.445312 418.742188 873.753906 C 419.726562 873.640625 421.457031 873.433594 421.457031 873.433594 C 421.457031 873.433594 422.019531 872.105469 422.085938 871.859375 "/>
<path fill-rule="nonzero" fill="rgb(0%, 0%, 0%)" fill-opacity="1" d="M 364.804688 596.691406 C 364.804688 544.535156 407.085938 502.25 459.242188 502.25 C 511.402344 502.25 553.683594 544.535156 553.683594 596.691406 C 553.683594 648.851562 511.402344 691.132812 459.242188 691.132812 C 407.085938 691.132812 364.804688 648.851562 364.804688 596.691406 "/>
<path fill-rule="nonzero" fill="rgb(0%, 0%, 0%)" fill-opacity="1" d="M 364.824219 967.609375 C 364.4375 967.660156 364.054688 967.714844 363.671875 967.777344 C 371.84375 975.777344 377.65625 986.144531 379.984375 997.78125 C 379.984375 997.789062 379.984375 997.796875 379.988281 997.800781 L 380.714844 1001.464844 C 381.15625 1004.199219 380.515625 1007.003906 378.921875 1009.273438 C 381.242188 1010.75 382.902344 1013.074219 383.546875 1015.753906 L 418.53125 1192.242188 C 420.414062 1201.742188 419.882812 1211.5625 416.992188 1220.808594 L 367.3125 1379.609375 C 364.699219 1387.96875 360.328125 1395.3125 354.742188 1401.386719 C 379.792969 1407.949219 405.464844 1393.152344 412.347656 1368.1875 L 455.273438 1211.851562 C 457.332031 1204.355469 457.511719 1196.46875 455.796875 1188.886719 L 414.058594 1004.378906 C 408.921875 981.679688 388.042969 966.089844 364.824219 967.609375 Z M 325.074219 994.941406 C 320.65625 1004.40625 319.496094 1015.0625 321.765625 1025.257812 L 360.894531 1198.214844 L 321.101562 1343.132812 C 316.371094 1360.410156 321.804688 1378.882812 335.136719 1390.847656 C 340.542969 1386.453125 344.765625 1380.464844 347.019531 1373.265625 L 396.703125 1214.460938 C 398.535156 1208.605469 398.867188 1202.390625 397.675781 1196.371094 L 364.222656 1027.617188 C 364.15625 1027.601562 364.09375 1027.59375 364.027344 1027.585938 C 364.296875 1027.636719 364.203125 1027.625 363.75 1027.535156 C 362.789062 1027.347656 361.84375 1027.132812 360.921875 1026.898438 C 360.488281 1026.785156 360.308594 1026.730469 360.371094 1026.75 C 359.640625 1026.554688 358.917969 1026.34375 358.203125 1026.113281 C 357.984375 1026.046875 357.722656 1025.964844 357.421875 1025.863281 C 356.667969 1025.609375 355.910156 1025.335938 355.152344 1025.039062 C 355.246094 1025.074219 355.125 1025.03125 354.78125 1024.894531 C 353.886719 1024.539062 352.996094 1024.152344 352.109375 1023.734375 C 351.761719 1023.570312 351.628906 1023.503906 351.703125 1023.539062 C 350.96875 1023.1875 350.25 1022.816406 349.542969 1022.433594 C 349.273438 1022.285156 349.058594 1022.164062 348.890625 1022.070312 C 348.203125 1021.6875 347.53125 1021.285156 346.871094 1020.871094 C 346.933594 1020.910156 346.777344 1020.820312 346.40625 1020.582031 C 345.605469 1020.066406 344.800781 1019.523438 344.007812 1018.941406 C 343.628906 1018.664062 343.503906 1018.5625 343.617188 1018.648438 C 342.980469 1018.175781 342.359375 1017.683594 341.753906 1017.183594 C 341.480469 1016.960938 341.242188 1016.761719 341.039062 1016.585938 C 340.496094 1016.121094 339.976562 1015.65625 339.472656 1015.1875 C 339.402344 1015.121094 339.195312 1014.9375 338.863281 1014.617188 C 338.207031 1013.984375 337.53125 1013.296875 336.839844 1012.546875 C 336.453125 1012.125 336.382812 1012.039062 336.613281 1012.292969 C 336.019531 1011.636719 335.453125 1010.976562 334.914062 1010.316406 C 334.648438 1009.988281 334.472656 1009.753906 334.367188 1009.621094 C 333.910156 1009.039062 333.472656 1008.449219 333.054688 1007.863281 C 333.050781 1007.863281 333.050781 1007.863281 333.050781 1007.863281 C 332.957031 1007.734375 332.785156 1007.5 332.542969 1007.144531 C 332.023438 1006.390625 331.46875 1005.558594 330.910156 1004.632812 L 325.074219 994.941406 "/>
<path fill-rule="nonzero" fill="rgb(0%, 0%, 0%)" fill-opacity="1" d="M 365.613281 679.542969 C 332.355469 679.628906 302.425781 699.742188 289.777344 730.5 C 289.777344 730.5 271.164062 774.914062 258.050781 821.550781 L 328.304688 708.515625 C 335.582031 696.804688 348.582031 689.847656 362.363281 690.296875 C 369.136719 690.515625 375.738281 692.515625 381.496094 696.09375 C 399.546875 707.3125 405.132812 731.242188 393.914062 749.289062 L 370.78125 786.515625 L 335.925781 842.605469 L 406.199219 959.296875 C 412.410156 969.613281 413.195312 981.738281 409.402344 992.308594 C 410.710938 994.738281 411.804688 997.273438 412.671875 999.894531 C 420.714844 983.757812 423.226562 965.425781 419.828125 947.71875 C 419.828125 947.71875 417.011719 932.957031 415.222656 913.617188 C 413.4375 894.28125 415.339844 869.6875 415.25 870.011719 C 424.148438 837.105469 441.867188 793.035156 441.867188 793.035156 C 459.132812 751.035156 439.089844 702.992188 397.089844 685.722656 C 387.105469 681.617188 376.410156 679.515625 365.613281 679.542969 Z M 361.90625 704.460938 C 353.160156 704.175781 344.957031 708.5625 340.339844 715.992188 L 269.871094 829.378906 C 265.015625 837.1875 264.949219 847.023438 269.695312 854.902344 L 342.171875 975.253906 C 346.84375 972.171875 352.023438 969.945312 357.476562 968.675781 C 359.894531 968.125 362.351562 967.769531 364.824219 967.609375 C 376.671875 966.875 388.359375 970.621094 397.574219 978.101562 C 397.386719 974.179688 396.242188 970.234375 394.058594 966.605469 L 321.546875 846.199219 C 320.175781 843.921875 320.195312 841.066406 321.597656 838.804688 L 381.878906 741.8125 C 389.050781 730.269531 385.5625 715.304688 374.019531 708.132812 C 370.371094 705.863281 366.195312 704.597656 361.90625 704.460938 Z M 252.246094 846.265625 C 246.535156 878.558594 249.316406 905.402344 251.476562 928.75 C 254.046875 956.570312 258.34375 978.785156 258.34375 978.785156 C 264.898438 1012.714844 291.96875 1038.925781 326.09375 1044.378906 L 321.765625 1025.257812 C 318.585938 1011.023438 322.148438 996.121094 331.414062 984.863281 L 257.554688 862.210938 C 254.574219 857.265625 252.820312 851.8125 252.246094 846.265625 Z M 397.574219 978.109375 C 397.574219 978.167969 397.574219 978.226562 397.574219 978.285156 C 397.574219 978.226562 397.574219 978.167969 397.574219 978.109375 Z M 397.574219 980.191406 C 397.5625 980.402344 397.554688 980.613281 397.539062 980.828125 C 397.554688 980.613281 397.5625 980.402344 397.574219 980.191406 Z M 397.367188 982.5625 C 397.355469 982.671875 397.34375 982.785156 397.328125 982.894531 C 397.34375 982.785156 397.351562 982.671875 397.367188 982.5625 Z M 396.933594 984.890625 C 396.890625 985.074219 396.839844 985.253906 396.792969 985.433594 C 396.839844 985.253906 396.890625 985.074219 396.933594 984.890625 Z M 396.296875 987.089844 C 396.253906 987.214844 396.21875 987.34375 396.171875 987.46875 C 396.21875 987.34375 396.253906 987.214844 396.296875 987.089844 Z M 395.390625 989.378906 C 395.324219 989.527344 395.25 989.675781 395.179688 989.820312 C 395.25 989.675781 395.324219 989.527344 395.390625 989.378906 Z M 394.378906 991.34375 C 394.296875 991.480469 394.222656 991.621094 394.140625 991.761719 C 394.222656 991.621094 394.296875 991.480469 394.378906 991.34375 Z M 392.992188 993.507812 C 392.910156 993.617188 392.820312 993.726562 392.738281 993.839844 C 392.820312 993.726562 392.910156 993.617188 392.992188 993.507812 Z M 391.621094 995.21875 C 391.503906 995.355469 391.386719 995.488281 391.265625 995.621094 C 391.386719 995.488281 391.503906 995.355469 391.621094 995.21875 Z M 389.75 997.15625 C 389.6875 997.210938 389.625 997.265625 389.5625 997.320312 C 389.625 997.265625 389.6875 997.210938 389.75 997.15625 Z M 406.804688 998.027344 C 406.757812 998.113281 406.707031 998.203125 406.65625 998.289062 C 406.707031 998.203125 406.757812 998.113281 406.804688 998.027344 Z M 388.050781 998.570312 C 387.902344 998.6875 387.75 998.800781 387.597656 998.914062 C 387.75 998.800781 387.902344 998.6875 388.050781 998.570312 Z M 405.105469 1000.816406 C 405.035156 1000.914062 404.96875 1001.011719 404.898438 1001.113281 C 404.96875 1001.011719 405.035156 1000.914062 405.105469 1000.816406 Z M 401.054688 1005.867188 C 400.980469 1005.945312 400.914062 1006.023438 400.839844 1006.097656 C 400.914062 1006.023438 400.980469 1005.945312 401.054688 1005.867188 Z M 398.707031 1008.132812 C 398.578125 1008.246094 398.449219 1008.363281 398.316406 1008.476562 C 398.449219 1008.363281 398.578125 1008.246094 398.707031 1008.132812 Z M 396.011719 1010.320312 C 395.890625 1010.40625 395.769531 1010.492188 395.648438 1010.578125 C 395.769531 1010.492188 395.890625 1010.40625 396.011719 1010.320312 "/>
<path fill-rule="nonzero" fill="rgb(0%, 0%, 0%)" fill-opacity="1" d="M 317.773438 962.210938 C 316.496094 962.308594 315.21875 962.457031 313.953125 962.660156 C 301.644531 965.097656 290.808594 972.328125 283.832031 982.757812 C 276.851562 993.183594 274.304688 1005.960938 276.742188 1018.265625 L 312.945312 1200.882812 L 266.863281 1348.183594 C 259.058594 1373.121094 272.949219 1399.660156 297.886719 1407.464844 C 322.824219 1415.265625 349.363281 1401.375 357.164062 1376.4375 L 406.847656 1217.632812 C 409.210938 1210.085938 409.640625 1202.066406 408.105469 1194.308594 L 373.117188 1017.816406 C 373.113281 1017.816406 373.113281 1017.816406 373.109375 1017.816406 C 372.34375 1017.816406 371.578125 1017.785156 370.816406 1017.738281 C 370.664062 1017.726562 370.511719 1017.714844 370.355469 1017.703125 C 369.753906 1017.660156 369.148438 1017.601562 368.546875 1017.527344 C 368.355469 1017.507812 368.167969 1017.484375 367.980469 1017.457031 C 367.316406 1017.367188 366.65625 1017.261719 365.996094 1017.136719 C 365.921875 1017.125 365.851562 1017.113281 365.777344 1017.101562 C 365.03125 1016.953125 364.289062 1016.785156 363.554688 1016.597656 C 363.410156 1016.5625 363.265625 1016.519531 363.121094 1016.480469 C 362.550781 1016.328125 361.980469 1016.160156 361.414062 1015.980469 C 361.210938 1015.914062 361.007812 1015.851562 360.804688 1015.78125 C 360.203125 1015.582031 359.609375 1015.367188 359.019531 1015.136719 C 358.921875 1015.097656 358.824219 1015.0625 358.726562 1015.027344 C 358.019531 1014.742188 357.320312 1014.4375 356.628906 1014.113281 C 356.519531 1014.0625 356.414062 1014.007812 356.308594 1013.957031 C 355.734375 1013.683594 355.171875 1013.394531 354.613281 1013.089844 C 354.441406 1012.996094 354.269531 1012.902344 354.101562 1012.804688 C 353.566406 1012.507812 353.039062 1012.191406 352.519531 1011.867188 C 352.394531 1011.789062 352.273438 1011.71875 352.152344 1011.640625 C 351.515625 1011.230469 350.886719 1010.804688 350.273438 1010.355469 C 350.171875 1010.277344 350.070312 1010.199219 349.96875 1010.121094 C 349.472656 1009.753906 348.984375 1009.371094 348.507812 1008.976562 C 348.320312 1008.824219 348.132812 1008.664062 347.949219 1008.507812 C 347.535156 1008.152344 347.125 1007.785156 346.726562 1007.414062 C 346.566406 1007.265625 346.40625 1007.117188 346.246094 1006.96875 C 345.703125 1006.445312 345.175781 1005.90625 344.660156 1005.347656 C 344.601562 1005.285156 344.546875 1005.214844 344.484375 1005.148438 C 344.03125 1004.648438 343.589844 1004.132812 343.15625 1003.601562 C 343.011719 1003.421875 342.871094 1003.238281 342.726562 1003.058594 C 342.375 1002.609375 342.035156 1002.152344 341.699219 1001.683594 C 341.566406 1001.496094 341.429688 1001.3125 341.300781 1001.121094 C 340.855469 1000.480469 340.425781 999.824219 340.019531 999.148438 Z M 334.996094 963.335938 L 352.160156 991.839844 C 352.558594 992.503906 352.992188 993.132812 353.441406 993.742188 C 353.511719 993.839844 353.578125 993.9375 353.652344 994.03125 C 353.84375 994.285156 354.054688 994.515625 354.257812 994.761719 C 354.652344 995.246094 355.058594 995.726562 355.488281 996.171875 C 355.691406 996.386719 355.902344 996.585938 356.109375 996.789062 C 356.554688 997.21875 357.003906 997.632812 357.472656 998.027344 C 357.683594 998.199219 357.894531 998.371094 358.105469 998.535156 C 358.636719 998.949219 359.179688 999.34375 359.738281 999.707031 C 359.894531 999.808594 360.046875 999.914062 360.203125 1000.011719 C 360.925781 1000.460938 361.671875 1000.882812 362.433594 1001.253906 C 362.4375 1001.253906 362.441406 1001.257812 362.445312 1001.257812 C 364.914062 1002.453125 367.570312 1003.21875 370.285156 1003.53125 L 369.5625 999.867188 C 366 982.066406 352.570312 967.871094 334.996094 963.335938 "/>
<path fill-rule="nonzero" fill="rgb(0%, 0%, 0%)" fill-opacity="1" d="M 362.132812 697.378906 C 350.871094 697.011719 340.269531 702.683594 334.320312 712.253906 L 263.851562 825.636719 C 257.601562 835.699219 257.515625 848.410156 263.625 858.558594 L 346.089844 995.492188 C 355.074219 1010.417969 374.457031 1015.230469 389.378906 1006.242188 C 404.304688 997.257812 409.113281 977.875 400.128906 962.953125 L 327.617188 842.542969 L 387.894531 745.550781 C 392.3125 738.445312 393.726562 729.878906 391.824219 721.730469 C 389.921875 713.585938 384.863281 706.527344 377.757812 702.113281 C 373.054688 699.191406 367.667969 697.558594 362.132812 697.378906 "/>
<path fill-rule="nonzero" fill="rgb(100%, 100%, 100%)" fill-opacity="1" d="M 362.363281 690.296875 C 348.582031 689.851562 335.582031 696.804688 328.304688 708.515625 L 257.835938 821.898438 C 250.1875 834.207031 250.078125 849.800781 257.554688 862.210938 L 340.019531 999.148438 C 350.980469 1017.351562 374.832031 1023.273438 393.035156 1012.3125 C 411.238281 1001.351562 417.160156 977.5 406.199219 959.296875 L 335.925781 842.605469 L 393.914062 749.289062 C 405.132812 731.242188 399.546875 707.3125 381.496094 696.09375 C 375.738281 692.515625 369.136719 690.515625 362.363281 690.296875 Z M 361.90625 704.460938 C 366.195312 704.597656 370.371094 705.863281 374.019531 708.128906 C 385.558594 715.304688 389.050781 730.269531 381.878906 741.8125 L 321.597656 838.804688 C 320.195312 841.066406 320.175781 843.921875 321.546875 846.199219 L 394.058594 966.605469 C 401.070312 978.25 397.367188 993.160156 385.726562 1000.171875 C 374.085938 1007.183594 359.171875 1003.480469 352.160156 991.839844 L 269.695312 854.902344 C 264.949219 847.023438 265.019531 837.1875 269.871094 829.378906 L 340.339844 715.992188 C 344.957031 708.5625 353.160156 704.175781 361.90625 704.460938 "/>
<path fill-rule="nonzero" fill="rgb(0%, 0%, 0%)" fill-opacity="1" d="M 3903.640625 726.484375 C 3908.929688 734.707031 3910.230469 745.128906 3906.769531 754.523438 C 3910.238281 745.121094 3908.941406 734.707031 3903.648438 726.488281 C 3903.648438 726.488281 3903.648438 726.488281 3903.640625 726.484375 Z M 3880.351562 798.253906 L 3860.058594 830.898438 L 3860.058594 830.902344 Z M 3938.910156 883.980469 C 3938.730469 884.621094 3938.53125 885.285156 3938.359375 885.917969 C 3938.359375 885.992188 3938.351562 886.03125 3938.351562 886.113281 C 3938.308594 886.796875 3938.25 887.785156 3938.179688 889.046875 C 3938.039062 891.566406 3937.871094 895.15625 3937.75 899.339844 C 3937.519531 907.710938 3937.5 918.496094 3938.351562 927.664062 C 3940.101562 946.644531 3942.859375 961.066406 3942.859375 961.078125 L 3942.859375 961.089844 C 3945.160156 973.074219 3944.960938 985.320312 3942.371094 997.09375 C 3953.128906 1005.074219 3967.761719 1005.386719 3978.851562 997.878906 C 3985.738281 993.144531 3990.480469 985.863281 3992 977.640625 C 3993.53125 969.414062 3991.730469 960.917969 3986.988281 954.023438 Z M 3938.160156 886.558594 C 3937.238281 887.484375 3936.078125 888.140625 3934.808594 888.453125 C 3935.800781 888.335938 3937.53125 888.132812 3937.53125 888.132812 C 3937.53125 888.132812 3938.089844 886.804688 3938.160156 886.558594 "/>
<path fill-rule="nonzero" fill="rgb(0%, 0%, 0%)" fill-opacity="1" d="M 3880.878906 611.390625 C 3880.878906 559.234375 3923.160156 516.949219 3975.320312 516.949219 C 4027.46875 516.949219 4069.761719 559.234375 4069.761719 611.390625 C 4069.761719 663.550781 4027.46875 705.832031 3975.320312 705.832031 C 3923.160156 705.832031 3880.878906 663.550781 3880.878906 611.390625 "/>
<path fill-rule="nonzero" fill="rgb(0%, 0%, 0%)" fill-opacity="1" d="M 3880.898438 982.308594 C 3880.511719 982.359375 3880.128906 982.414062 3879.75 982.472656 C 3887.910156 990.476562 3893.730469 1000.839844 3896.058594 1012.480469 C 3896.058594 1012.484375 3896.058594 1012.492188 3896.058594 1012.5 L 3896.789062 1016.160156 C 3897.230469 1018.898438 3896.589844 1021.699219 3894.988281 1023.96875 C 3897.320312 1025.449219 3898.96875 1027.773438 3899.621094 1030.449219 L 3934.601562 1206.9375 C 3936.488281 1216.441406 3935.949219 1226.261719 3933.058594 1235.503906 L 3883.390625 1394.308594 C 3880.769531 1402.667969 3876.398438 1410.011719 3870.820312 1416.082031 C 3895.871094 1422.648438 3921.539062 1407.851562 3928.421875 1382.886719 L 3971.351562 1226.550781 C 3973.398438 1219.054688 3973.578125 1211.167969 3971.871094 1203.585938 L 3930.128906 1019.074219 C 3924.988281 996.378906 3904.121094 980.785156 3880.898438 982.308594 Z M 3841.148438 1009.640625 C 3836.730469 1019.101562 3835.570312 1029.761719 3837.839844 1039.953125 L 3876.96875 1212.914062 L 3837.171875 1357.832031 C 3832.441406 1375.109375 3837.878906 1393.578125 3851.210938 1405.542969 C 3856.609375 1401.152344 3860.839844 1395.160156 3863.089844 1387.960938 L 3912.769531 1229.15625 C 3914.609375 1223.304688 3914.941406 1217.085938 3913.75 1211.070312 L 3880.300781 1042.3125 C 3880.230469 1042.300781 3880.171875 1042.292969 3880.101562 1042.28125 C 3880.371094 1042.332031 3880.28125 1042.320312 3879.820312 1042.234375 C 3878.859375 1042.046875 3877.921875 1041.832031 3876.988281 1041.597656 C 3876.558594 1041.484375 3876.378906 1041.429688 3876.441406 1041.445312 C 3875.710938 1041.25 3874.988281 1041.039062 3874.269531 1040.8125 C 3874.058594 1040.742188 3873.800781 1040.660156 3873.488281 1040.5625 C 3872.738281 1040.308594 3871.980469 1040.035156 3871.21875 1039.738281 C 3871.320312 1039.773438 3871.199219 1039.730469 3870.859375 1039.59375 C 3869.960938 1039.234375 3869.070312 1038.851562 3868.179688 1038.433594 C 3867.828125 1038.269531 3867.699219 1038.199219 3867.769531 1038.238281 C 3867.039062 1037.882812 3866.320312 1037.511719 3865.621094 1037.128906 C 3865.351562 1036.984375 3865.128906 1036.863281 3864.960938 1036.769531 C 3864.28125 1036.382812 3863.601562 1035.984375 3862.941406 1035.570312 C 3863 1035.609375 3862.851562 1035.519531 3862.480469 1035.28125 C 3861.679688 1034.765625 3860.871094 1034.21875 3860.078125 1033.640625 C 3859.699219 1033.363281 3859.570312 1033.261719 3859.691406 1033.347656 C 3859.050781 1032.871094 3858.429688 1032.382812 3857.820312 1031.882812 C 3857.550781 1031.65625 3857.308594 1031.457031 3857.109375 1031.285156 C 3856.570312 1030.820312 3856.050781 1030.351562 3855.539062 1029.886719 C 3855.480469 1029.820312 3855.269531 1029.636719 3854.941406 1029.316406 C 3854.28125 1028.683594 3853.601562 1027.996094 3852.910156 1027.242188 C 3852.519531 1026.824219 3852.449219 1026.738281 3852.691406 1026.992188 C 3852.089844 1026.335938 3851.53125 1025.675781 3850.988281 1025.011719 C 3850.71875 1024.6875 3850.539062 1024.453125 3850.441406 1024.320312 C 3849.980469 1023.738281 3849.550781 1023.148438 3849.128906 1022.5625 C 3849.121094 1022.5625 3849.121094 1022.5625 3849.121094 1022.5625 C 3849.03125 1022.433594 3848.859375 1022.195312 3848.621094 1021.84375 C 3848.101562 1021.089844 3847.539062 1020.257812 3846.980469 1019.332031 L 3841.148438 1009.640625 "/>
<path fill-rule="nonzero" fill="rgb(0%, 0%, 0%)" fill-opacity="1" d="M 3881.679688 694.242188 C 3848.429688 694.328125 3818.5 714.4375 3805.851562 745.195312 C 3805.851562 745.195312 3787.238281 789.613281 3774.121094 836.246094 L 3844.378906 723.214844 C 3851.648438 711.503906 3864.648438 704.546875 3878.429688 704.992188 C 3885.210938 705.214844 3891.808594 707.214844 3897.570312 710.792969 C 3915.621094 722.007812 3921.199219 745.941406 3909.988281 763.988281 L 3886.851562 801.214844 L 3852 857.304688 L 3922.269531 973.996094 C 3928.480469 984.3125 3929.269531 996.4375 3925.46875 1007.007812 C 3926.78125 1009.433594 3927.878906 1011.972656 3928.738281 1014.59375 C 3936.789062 998.453125 3939.300781 980.121094 3935.898438 962.417969 C 3935.898438 962.417969 3933.078125 947.65625 3931.289062 928.316406 C 3929.511719 908.976562 3931.410156 884.386719 3931.320312 884.710938 C 3940.21875 851.804688 3957.941406 807.730469 3957.941406 807.730469 C 3975.210938 765.734375 3955.160156 717.691406 3913.160156 700.421875 C 3903.179688 696.316406 3892.480469 694.214844 3881.679688 694.242188 Z M 3877.980469 719.15625 C 3869.230469 718.875 3861.03125 723.261719 3856.410156 730.691406 L 3785.941406 844.074219 C 3781.089844 851.886719 3781.019531 861.722656 3785.769531 869.601562 L 3858.238281 989.953125 C 3862.921875 986.871094 3868.101562 984.644531 3873.550781 983.371094 C 3875.96875 982.824219 3878.421875 982.46875 3880.898438 982.308594 C 3892.738281 981.574219 3904.429688 985.316406 3913.648438 992.800781 C 3913.460938 988.875 3912.308594 984.933594 3910.128906 981.304688 L 3837.621094 860.898438 C 3836.25 858.617188 3836.269531 855.761719 3837.671875 853.503906 L 3897.949219 756.511719 C 3905.121094 744.96875 3901.628906 730.003906 3890.089844 722.828125 C 3886.441406 720.5625 3882.269531 719.296875 3877.980469 719.15625 Z M 3768.320312 860.960938 C 3762.609375 893.257812 3765.390625 920.101562 3767.550781 943.445312 C 3770.121094 971.269531 3774.421875 993.480469 3774.421875 993.480469 C 3780.96875 1027.410156 3808.039062 1053.621094 3842.160156 1059.078125 L 3837.839844 1039.953125 C 3834.660156 1025.722656 3838.21875 1010.820312 3847.488281 999.5625 L 3773.628906 876.910156 C 3770.648438 871.964844 3768.890625 866.511719 3768.320312 860.960938 Z M 3913.648438 992.808594 C 3913.648438 992.867188 3913.648438 992.925781 3913.648438 992.984375 C 3913.648438 992.925781 3913.648438 992.867188 3913.648438 992.808594 Z M 3913.640625 994.886719 C 3913.640625 995.101562 3913.628906 995.3125 3913.609375 995.523438 C 3913.628906 995.3125 3913.640625 995.101562 3913.640625 994.886719 Z M 3913.441406 997.261719 C 3913.429688 997.371094 3913.421875 997.484375 3913.398438 997.59375 C 3913.421875 997.484375 3913.421875 997.371094 3913.441406 997.261719 Z M 3913 999.589844 C 3912.960938 999.773438 3912.910156 999.953125 3912.871094 1000.132812 C 3912.910156 999.949219 3912.960938 999.773438 3913 999.589844 Z M 3912.371094 1001.789062 C 3912.328125 1001.914062 3912.289062 1002.039062 3912.238281 1002.164062 C 3912.289062 1002.039062 3912.328125 1001.914062 3912.371094 1001.789062 Z M 3911.460938 1004.078125 C 3911.398438 1004.226562 3911.320312 1004.371094 3911.25 1004.519531 C 3911.320312 1004.371094 3911.398438 1004.226562 3911.460938 1004.078125 Z M 3910.449219 1006.039062 C 3910.371094 1006.179688 3910.289062 1006.320312 3910.210938 1006.457031 C 3910.289062 1006.320312 3910.371094 1006.179688 3910.449219 1006.039062 Z M 3909.058594 1008.203125 C 3908.980469 1008.316406 3908.890625 1008.425781 3908.808594 1008.535156 C 3908.890625 1008.425781 3908.980469 1008.316406 3909.058594 1008.203125 Z M 3907.691406 1009.917969 C 3907.570312 1010.054688 3907.460938 1010.1875 3907.339844 1010.320312 C 3907.460938 1010.1875 3907.570312 1010.054688 3907.691406 1009.917969 Z M 3905.820312 1011.851562 C 3905.761719 1011.910156 3905.699219 1011.960938 3905.628906 1012.019531 C 3905.699219 1011.960938 3905.761719 1011.910156 3905.820312 1011.851562 Z M 3922.878906 1012.722656 C 3922.828125 1012.8125 3922.78125 1012.902344 3922.730469 1012.988281 C 3922.78125 1012.902344 3922.828125 1012.8125 3922.878906 1012.722656 Z M 3904.121094 1013.269531 C 3903.96875 1013.386719 3903.820312 1013.5 3903.671875 1013.613281 C 3903.820312 1013.5 3903.96875 1013.386719 3904.121094 1013.269531 Z M 3921.179688 1015.511719 C 3921.109375 1015.613281 3921.039062 1015.710938 3920.96875 1015.808594 C 3921.039062 1015.710938 3921.109375 1015.613281 3921.179688 1015.511719 Z M 3917.128906 1020.566406 C 3917.050781 1020.640625 3916.980469 1020.722656 3916.910156 1020.796875 C 3916.980469 1020.722656 3917.050781 1020.640625 3917.128906 1020.566406 Z M 3914.78125 1022.832031 C 3914.648438 1022.945312 3914.519531 1023.0625 3914.390625 1023.175781 C 3914.519531 1023.0625 3914.648438 1022.945312 3914.78125 1022.832031 Z M 3912.078125 1025.015625 C 3911.960938 1025.105469 3911.839844 1025.1875 3911.71875 1025.273438 C 3911.839844 1025.1875 3911.960938 1025.105469 3912.078125 1025.015625 "/>
<path fill-rule="nonzero" fill="rgb(0%, 0%, 0%)" fill-opacity="1" d="M 3833.851562 976.90625 C 3832.570312 977.003906 3831.289062 977.15625 3830.019531 977.355469 C 3817.71875 979.796875 3806.878906 987.027344 3799.898438 997.453125 C 3792.929688 1007.882812 3790.378906 1020.65625 3792.820312 1032.964844 L 3829.019531 1215.582031 L 3782.929688 1362.882812 C 3775.128906 1387.820312 3789.019531 1414.359375 3813.960938 1422.160156 C 3838.898438 1429.964844 3865.441406 1416.074219 3873.238281 1391.136719 L 3922.921875 1232.332031 C 3925.28125 1224.785156 3925.710938 1216.765625 3924.179688 1209.007812 L 3889.191406 1032.515625 C 3889.191406 1032.515625 3889.179688 1032.515625 3889.179688 1032.515625 C 3888.410156 1032.515625 3887.648438 1032.484375 3886.890625 1032.4375 C 3886.730469 1032.425781 3886.578125 1032.414062 3886.429688 1032.402344 C 3885.820312 1032.359375 3885.21875 1032.300781 3884.621094 1032.226562 C 3884.429688 1032.203125 3884.238281 1032.179688 3884.050781 1032.15625 C 3883.390625 1032.066406 3882.730469 1031.960938 3882.070312 1031.835938 C 3882 1031.820312 3881.921875 1031.8125 3881.851562 1031.796875 C 3881.101562 1031.652344 3880.359375 1031.484375 3879.628906 1031.296875 C 3879.480469 1031.261719 3879.339844 1031.21875 3879.191406 1031.179688 C 3878.621094 1031.023438 3878.050781 1030.859375 3877.488281 1030.679688 C 3877.28125 1030.613281 3877.078125 1030.550781 3876.878906 1030.480469 C 3876.28125 1030.28125 3875.679688 1030.066406 3875.089844 1029.835938 C 3874.988281 1029.796875 3874.898438 1029.761719 3874.800781 1029.722656 C 3874.089844 1029.441406 3873.390625 1029.136719 3872.699219 1028.8125 C 3872.589844 1028.761719 3872.488281 1028.707031 3872.378906 1028.65625 C 3871.808594 1028.382812 3871.238281 1028.09375 3870.679688 1027.789062 C 3870.511719 1027.695312 3870.339844 1027.601562 3870.171875 1027.503906 C 3869.640625 1027.203125 3869.109375 1026.890625 3868.589844 1026.5625 C 3868.46875 1026.488281 3868.339844 1026.414062 3868.21875 1026.335938 C 3867.589844 1025.929688 3866.960938 1025.5 3866.339844 1025.050781 C 3866.238281 1024.976562 3866.140625 1024.898438 3866.039062 1024.820312 C 3865.539062 1024.449219 3865.058594 1024.070312 3864.578125 1023.675781 C 3864.390625 1023.519531 3864.210938 1023.363281 3864.019531 1023.203125 C 3863.609375 1022.851562 3863.199219 1022.484375 3862.800781 1022.109375 C 3862.640625 1021.960938 3862.480469 1021.816406 3862.320312 1021.664062 C 3861.78125 1021.140625 3861.25 1020.605469 3860.730469 1020.046875 C 3860.671875 1019.980469 3860.621094 1019.914062 3860.558594 1019.847656 C 3860.101562 1019.347656 3859.660156 1018.828125 3859.230469 1018.300781 C 3859.078125 1018.121094 3858.941406 1017.9375 3858.800781 1017.757812 C 3858.449219 1017.308594 3858.109375 1016.847656 3857.769531 1016.382812 C 3857.640625 1016.195312 3857.5 1016.011719 3857.371094 1015.820312 C 3856.929688 1015.175781 3856.5 1014.523438 3856.089844 1013.847656 Z M 3851.070312 978.035156 L 3868.230469 1006.539062 C 3868.628906 1007.199219 3869.058594 1007.832031 3869.511719 1008.441406 C 3869.578125 1008.539062 3869.648438 1008.636719 3869.71875 1008.730469 C 3869.921875 1008.984375 3870.128906 1009.214844 3870.328125 1009.460938 C 3870.730469 1009.945312 3871.128906 1010.421875 3871.558594 1010.871094 C 3871.761719 1011.082031 3871.96875 1011.28125 3872.179688 1011.484375 C 3872.628906 1011.917969 3873.078125 1012.332031 3873.550781 1012.722656 C 3873.75 1012.898438 3873.960938 1013.070312 3874.179688 1013.234375 C 3874.710938 1013.648438 3875.25 1014.039062 3875.808594 1014.40625 C 3875.96875 1014.507812 3876.121094 1014.613281 3876.269531 1014.710938 C 3877 1015.160156 3877.738281 1015.582031 3878.511719 1015.949219 C 3878.511719 1015.953125 3878.511719 1015.953125 3878.519531 1015.957031 C 3880.988281 1017.152344 3883.640625 1017.917969 3886.359375 1018.230469 L 3885.628906 1014.566406 C 3882.070312 996.765625 3868.640625 982.570312 3851.070312 978.035156 "/>
<path fill-rule="nonzero" fill="rgb(0%, 0%, 0%)" fill-opacity="1" d="M 3878.210938 712.074219 C 3866.941406 711.710938 3856.339844 717.382812 3850.390625 726.953125 L 3779.929688 840.335938 C 3773.679688 850.394531 3773.589844 863.109375 3779.699219 873.253906 L 3862.160156 1010.191406 C 3871.148438 1025.113281 3890.53125 1029.925781 3905.449219 1020.941406 C 3920.371094 1011.953125 3925.191406 992.574219 3916.199219 977.648438 L 3843.691406 857.242188 L 3903.96875 760.25 C 3908.378906 753.144531 3909.800781 744.574219 3907.898438 736.429688 C 3905.988281 728.285156 3900.929688 721.226562 3893.828125 716.808594 C 3889.128906 713.890625 3883.738281 712.257812 3878.210938 712.074219 "/>
<path fill-rule="nonzero" fill="rgb(100%, 100%, 100%)" fill-opacity="1" d="M 3878.429688 704.996094 C 3864.648438 704.546875 3851.648438 711.503906 3844.378906 723.214844 L 3773.910156 836.597656 C 3766.261719 848.902344 3766.148438 864.496094 3773.628906 876.910156 L 3856.089844 1013.847656 C 3867.050781 1032.050781 3890.898438 1037.972656 3909.109375 1027.011719 C 3927.308594 1016.050781 3933.230469 992.199219 3922.269531 973.996094 L 3852 857.304688 L 3909.988281 763.988281 C 3921.199219 745.941406 3915.621094 722.007812 3897.570312 710.792969 C 3891.808594 707.214844 3885.210938 705.214844 3878.429688 704.996094 Z M 3877.980469 719.15625 C 3882.269531 719.296875 3886.441406 720.5625 3890.089844 722.828125 C 3901.628906 730.003906 3905.121094 744.96875 3897.949219 756.511719 L 3837.671875 853.503906 C 3836.269531 855.761719 3836.25 858.617188 3837.621094 860.898438 L 3910.128906 981.304688 C 3917.140625 992.945312 3913.441406 1007.859375 3901.800781 1014.871094 C 3890.160156 1021.882812 3875.238281 1018.179688 3868.230469 1006.539062 L 3785.769531 869.601562 C 3781.019531 861.722656 3781.089844 851.886719 3785.941406 844.074219 L 3856.410156 730.691406 C 3861.03125 723.261719 3869.230469 718.875 3877.980469 719.15625 "/>
</svg>
